<?xml version="1.0" encoding="utf-8"?>
<!-- Generator: Adobe Illustrator 26.0.1, SVG Export Plug-In . SVG Version: 6.00 Build 0)  -->
<svg version="1.1" id="图层_1" xmlns="http://www.w3.org/2000/svg" xmlns:xlink="http://www.w3.org/1999/xlink" x="0px" y="0px"
	 viewBox="0 0 2144 972" style="enable-background:new 0 0 2144 972;" xml:space="preserve">
<style type="text/css">
	.st0{fill:none;stroke:#262626;stroke-width:1.3333;stroke-linejoin:round;stroke-miterlimit:10;}
	.st1{fill:none;stroke:#000000;stroke-width:1.3333;stroke-miterlimit:10;}
	.st2{fill:none;stroke:#262626;stroke-width:5.3333;stroke-linecap:square;stroke-linejoin:round;stroke-miterlimit:10;}
	.st3{fill:#262626;}
	.st4{font-family:'ArialMT';}
	.st5{font-size:40px;}
	.st6{font-size:44px;}
	.st7{fill:none;stroke:#92D3B1;stroke-width:2.6667;stroke-linejoin:round;stroke-miterlimit:10;}
	.st8{fill:none;stroke:#6666CC;stroke-width:8;stroke-linejoin:round;stroke-miterlimit:10;}
	.st9{fill:none;stroke:#000000;stroke-width:8;stroke-linejoin:bevel;stroke-miterlimit:1;stroke-dasharray:32,32;}
	.st10{fill:none;stroke:#CC6666;stroke-width:8;stroke-linejoin:round;stroke-miterlimit:10;}
	.st11{fill:#FFFFFF;}
	.st12{fill:none;stroke:#262626;stroke-width:5.3333;stroke-miterlimit:10;}
</style>
<g>
	<g>
		<line class="st0" x1="177" y1="783" x2="1034" y2="783"/>
	</g>
	<g transform="matrix(0.4997,0,0,0.4996,228.9394,84.4954)">
		<g>
			<defs>
				<path id="SVGID_1_" d="M77.9,0H0v1398h77.9V0z M207.9,20.4h-77.9V1398h77.9V20.4z M337.8,90.4h-77.9V1398h77.9V90.4z
					 M467.7,101.5h-77.9V1398h77.9V101.5z M597.6,104.2h-77.9V1398h77.9V104.2z M727.5,192.1h-77.9V1398h77.9V192.1z M857.4,211.1
					h-77.9V1398h77.9V211.1z M987.3,212.4h-77.9V1398h77.9V212.4z M1117.3,267.6h-77.9V1398h77.9V267.6z M1247.2,390.7h-77.9V1398
					h77.9V390.7z M1377.1,517.3h-77.9V1398h77.9V517.3z M1507,1371.9h-77.9v26.1h77.9V1371.9z"/>
			</defs>
			<clipPath id="SVGID_00000093890552511243266900000005258261835856657038_">
				<use xlink:href="#SVGID_1_"  style="overflow:visible;"/>
			</clipPath>
			
				<image style="overflow:visible;clip-path:url(#SVGID_00000093890552511243266900000005258261835856657038_);enable-background:new    ;" width="1507" height="1398" xlink:href="AB250B4B.png" >
			</image>
		</g>
	</g>
	<g>
		<path class="st1" d="M228.9,783V84.5h39V783H228.9z"/>
		<path class="st1" d="M293.9,783V94.7h39V783H293.9z"/>
		<path class="st1" d="M358.8,783V129.7h39V783H358.8z"/>
		<path class="st1" d="M423.7,783V135.2h39V783H423.7z"/>
		<path class="st1" d="M488.6,783V136.5h39V783H488.6z"/>
		<path class="st1" d="M553.6,783V180.5h39V783H553.6z"/>
		<path class="st1" d="M618.5,783V190h39v593H618.5z"/>
		<path class="st1" d="M683.4,783V190.6h39V783H683.4z"/>
		<path class="st1" d="M748.3,783V218.2h39V783H748.3z"/>
		<path class="st1" d="M813.3,783V279.7h39V783H813.3z"/>
		<path class="st1" d="M878.2,783V343h39v440H878.2z"/>
		<path class="st1" d="M943.1,783v-13.1h39V783H943.1z"/>
	</g>
	<g>
		<line class="st2" x1="177" y1="783" x2="1034" y2="783"/>
		<line class="st2" x1="248.4" y1="783" x2="248.4" y2="791.6"/>
		<line class="st2" x1="313.3" y1="783" x2="313.3" y2="791.6"/>
		<line class="st2" x1="378.3" y1="783" x2="378.3" y2="791.6"/>
		<line class="st2" x1="443.2" y1="783" x2="443.2" y2="791.6"/>
		<line class="st2" x1="508.1" y1="783" x2="508.1" y2="791.6"/>
		<line class="st2" x1="573" y1="783" x2="573" y2="791.6"/>
		<line class="st2" x1="638" y1="783" x2="638" y2="791.6"/>
		<line class="st2" x1="702.9" y1="783" x2="702.9" y2="791.6"/>
		<line class="st2" x1="767.8" y1="783" x2="767.8" y2="791.6"/>
		<line class="st2" x1="832.7" y1="783" x2="832.7" y2="791.6"/>
		<line class="st2" x1="897.7" y1="783" x2="897.7" y2="791.6"/>
		<line class="st2" x1="962.6" y1="783" x2="962.6" y2="791.6"/>
	</g>
	<g transform="translate(248.4167,804.9033) rotate(-45)">
		<text transform="matrix(1 0 0 1 -155.9998 36.9998)" class="st3 st4 st5">K-MHTC</text>
	</g>
	<g transform="translate(221,949) rotate(-45)">
		<text transform="matrix(1 0 0 1 1.539202e-04 -2.444516e-04)" class="st3 st4 st5">CDC_DR</text>
	</g>
	<g transform="translate(378.2651,804.9033) rotate(-45)">
		<text transform="matrix(1 0 0 1 -85 36.9996)" class="st3 st4 st5">CDE</text>
	</g>
	<g transform="translate(443.1894,804.9033) rotate(-45)">
		<text transform="matrix(1 0 0 1 -88.9999 37)" class="st3 st4 st5">CMS</text>
	</g>
	<g transform="translate(508.1136,804.9033) rotate(-45)">
		<text transform="matrix(1 0 0 1 -166.9998 37.0001)" class="st3 st4 st5">HD-NDW</text>
	</g>
	<g transform="translate(573.0379,804.9033) rotate(-45)">
		<text transform="matrix(1 0 0 1 -57.9999 36.9999)" class="st3 st4 st5">CU</text>
	</g>
	<g transform="translate(637.9621,804.9033) rotate(-45)">
		<text transform="matrix(1 0 0 1 -138 37.0002)" class="st3 st4 st5">Entropy</text>
	</g>
	<g transform="translate(702.8864,804.9033) rotate(-45)">
		<text transform="matrix(1 0 0 1 -174.0002 37.0003)" class="st3 st4 st5">COForest</text>
	</g>
	<g transform="translate(767.8106,804.9033) rotate(-45)">
		<text transform="matrix(1 0 0 1 -168.9997 36.9999)" class="st3 st4 st5">Het2Hom</text>
	</g>
	<g transform="translate(832.7349,804.9033) rotate(-45)">
		<text transform="matrix(1 0 0 1 -161.0002 37.0002)" class="st3 st4 st5">K-modes</text>
	</g>
	<g transform="translate(897.6591,804.9033) rotate(-45)">
		<text transform="matrix(1 0 0 1 -56 37)" class="st3 st4 st5">GT</text>
	</g>
	<g transform="translate(962.5833,804.9033) rotate(-45)">
		<text transform="matrix(1 0 0 1 -152 37.0001)" class="st3 st4 st5">Random</text>
	</g>
	<g>
		<line class="st2" x1="177" y1="783" x2="177" y2="36"/>
		<line class="st2" x1="177" y1="783" x2="168.4" y2="783"/>
		<line class="st2" x1="177" y1="658.5" x2="168.4" y2="658.5"/>
		<line class="st2" x1="177" y1="534" x2="168.4" y2="534"/>
		<line class="st2" x1="177" y1="409.5" x2="168.4" y2="409.5"/>
		<line class="st2" x1="177" y1="285" x2="168.4" y2="285"/>
		<line class="st2" x1="177" y1="160.5" x2="168.4" y2="160.5"/>
		<line class="st2" x1="177" y1="36" x2="168.4" y2="36"/>
	</g>
	<g transform="translate(155.0967,783)">
		<text transform="matrix(1 0 0 1 -23 14.5)" class="st3 st4 st5">0</text>
	</g>
	<g transform="translate(155.0967,658.5)">
		<text transform="matrix(1 0 0 1 -89 14.5)" class="st3 st4 st5">1000</text>
	</g>
	<g transform="translate(155.0967,534)">
		<text transform="matrix(1 0 0 1 -89 14.5)" class="st3 st4 st5">2000</text>
	</g>
	<g transform="translate(155.0967,409.5)">
		<text transform="matrix(1 0 0 1 -89 14.5)" class="st3 st4 st5">3000</text>
	</g>
	<g transform="translate(155.0967,285)">
		<text transform="matrix(1 0 0 1 -89 14.5)" class="st3 st4 st5">4000</text>
	</g>
	<g transform="translate(155.0967,160.5)">
		<text transform="matrix(1 0 0 1 -89 14.5)" class="st3 st4 st5">5000</text>
	</g>
	<g transform="translate(155.0967,36)">
		<text transform="matrix(1 0 0 1 -89 14.5)" class="st3 st4 st5">6000</text>
	</g>
	<g transform="translate(58.0967,409.4996) rotate(-90)">
		<text transform="matrix(1 0 0 1 -177.9996 -8)" class="st3 st4 st5">Average SCS Value</text>
	</g>
	<g>
		<line class="st2" x1="1184" y1="783" x2="2042" y2="783"/>
		<line class="st2" x1="1184" y1="783" x2="1184" y2="791.6"/>
		<line class="st2" x1="1269.8" y1="783" x2="1269.8" y2="791.6"/>
		<line class="st2" x1="1355.6" y1="783" x2="1355.6" y2="791.6"/>
		<line class="st2" x1="1441.4" y1="783" x2="1441.4" y2="791.6"/>
		<line class="st2" x1="1527.2" y1="783" x2="1527.2" y2="791.6"/>
		<line class="st2" x1="1613" y1="783" x2="1613" y2="791.6"/>
		<line class="st2" x1="1698.8" y1="783" x2="1698.8" y2="791.6"/>
		<line class="st2" x1="1784.6" y1="783" x2="1784.6" y2="791.6"/>
		<line class="st2" x1="1870.4" y1="783" x2="1870.4" y2="791.6"/>
		<line class="st2" x1="1956.2" y1="783" x2="1956.2" y2="791.6"/>
		<line class="st2" x1="2042" y1="783" x2="2042" y2="791.6"/>
	</g>
	<g transform="translate(1184,804.9133)">
		<text transform="matrix(1 0 0 1 -11.5 37)" class="st3 st4 st5">0</text>
	</g>
	<g transform="translate(1269.8,804.9133)">
		<text transform="matrix(1 0 0 1 -28 37)" class="st3 st4 st5">0.1</text>
	</g>
	<g transform="translate(1355.6,804.9133)">
		<text transform="matrix(1 0 0 1 -28 37)" class="st3 st4 st5">0.2</text>
	</g>
	<g transform="translate(1441.4,804.9133)">
		<text transform="matrix(1 0 0 1 -28 37)" class="st3 st4 st5">0.3</text>
	</g>
	<g transform="translate(1527.2,804.9133)">
		<text transform="matrix(1 0 0 1 -28 37)" class="st3 st4 st5">0.4</text>
	</g>
	<g transform="translate(1613,804.9133)">
		<text transform="matrix(1 0 0 1 -28 37)" class="st3 st4 st5">0.5</text>
	</g>
	<g transform="translate(1698.8,804.9133)">
		<text transform="matrix(1 0 0 1 -28 37)" class="st3 st4 st5">0.6</text>
	</g>
	<g transform="translate(1784.6,804.9133)">
		<text transform="matrix(1 0 0 1 -28 37)" class="st3 st4 st5">0.7</text>
	</g>
	<g transform="translate(1870.4,804.9133)">
		<text transform="matrix(1 0 0 1 -28 37)" class="st3 st4 st5">0.8</text>
	</g>
	<g transform="translate(1956.2,804.9133)">
		<text transform="matrix(1 0 0 1 -28 37)" class="st3 st4 st5">0.9</text>
	</g>
	<g transform="translate(2042,804.9133)">
		<text transform="matrix(1 0 0 1 -11.5 37)" class="st3 st4 st5">1</text>
	</g>
	<g transform="translate(1613.0004,852.58)">
		<text transform="matrix(1 0 0 1 -72.5 41)" class="st3 st4 st6">p-value</text>
	</g>
	<g>
		<line class="st2" x1="1184" y1="783" x2="1184" y2="36"/>
		<line class="st2" x1="1184" y1="783" x2="1175.4" y2="783"/>
		<line class="st2" x1="1184" y1="633.6" x2="1175.4" y2="633.6"/>
		<line class="st2" x1="1184" y1="484.2" x2="1175.4" y2="484.2"/>
		<line class="st2" x1="1184" y1="334.8" x2="1175.4" y2="334.8"/>
		<line class="st2" x1="1184" y1="185.4" x2="1175.4" y2="185.4"/>
		<line class="st2" x1="1184" y1="36" x2="1175.4" y2="36"/>
	</g>
	<g transform="translate(1162.0867,783)">
		<text transform="matrix(1 0 0 1 -23 14.5)" class="st3 st4 st5">0</text>
	</g>
	<g transform="translate(1162.0867,633.6)">
		<text transform="matrix(1 0 0 1 -56 14.5)" class="st3 st4 st5">0.2</text>
	</g>
	<g transform="translate(1162.0867,484.2)">
		<text transform="matrix(1 0 0 1 -56 14.5)" class="st3 st4 st5">0.4</text>
	</g>
	<g transform="translate(1162.0867,334.8)">
		<text transform="matrix(1 0 0 1 -56 14.5)" class="st3 st4 st5">0.6</text>
	</g>
	<g transform="translate(1162.0867,185.4)">
		<text transform="matrix(1 0 0 1 -56 14.5)" class="st3 st4 st5">0.8</text>
	</g>
	<g transform="translate(1162.0867,36)">
		<text transform="matrix(1 0 0 1 -23 14.5)" class="st3 st4 st5">1</text>
	</g>
	<g transform="translate(1098.0867,409.4996) rotate(-90)">
		<text transform="matrix(1 0 0 1 -212.9996 -9)" class="st3 st4 st6">Cumulative frequency</text>
	</g>
	<g>
		<path class="st7" d="M1184,783V187.8v-6v-2.4v-0.6v-0.6v-0.6v-1.2v-1.2V174v-0.6v-1.2v-0.6v-0.6v-1.2v-0.6v-0.6v-0.6v-0.6v-0.6
			v-0.6v-0.6v-0.6v-0.6v-0.6v-0.6v-1.2v-0.6v-0.6v-0.6v-1.2v-0.6v-0.6v-0.6v-0.6v-0.6v-0.6v-0.6v-0.6v-0.6v-0.6v-0.6v-0.6v-0.6v-0.6
			v-0.6v-0.6v-0.6v-0.6v-0.6v-0.6v-0.6V146v-0.6v-0.6v-1.2V143v-0.6v-0.6v-0.6v-0.6V140v-0.6v-0.6v-0.6v-0.6V137v-0.6v-0.6v-0.6
			v-0.6V134v-0.6v-0.6v-1.2V131v-0.6v-0.6v-0.6v-0.6V128v-1.2v-0.6l0-0.6V125l0-0.6l0-1.2l0-0.6l0-0.6l0-0.6l0-0.6l0-0.6l0-0.6
			l1-0.6l0-0.6l0.2-0.6l4.4-0.6l3.9-0.6l2.8-0.6l705-0.6L2042,36"/>
		<path class="st7" d="M1184,783V206.9v-3v-3v-1.8v-0.6v-0.6v-0.6V195v-0.6v-0.6v-0.6V192v-0.6v-0.6v-0.6V189v-0.6v-1.2v-0.6V186
			v-0.6v-0.6v-0.6v-0.6V183v-0.6v-0.6v-0.6V180v-0.6v-0.6v-0.6v-0.6V177v-0.6v-0.6v-0.6v-0.6V174v-0.6v-0.6v-0.6v-0.6v-0.6v-0.6
			v-0.6v-0.6v-0.6v-0.6v-0.6v-0.6v-0.6v-0.6v-0.6v-0.6v-0.6v-0.6v-0.6v-0.6v-0.6v-0.6v-0.6v-0.6v-0.6v-0.6v-0.6v-0.6v-0.6v-0.6v-0.6
			v-0.6v-0.6v-0.6v-0.6v-0.6v-0.6v-0.6v-0.6v-0.6v-0.6v-6v-1.8v-0.6v-0.6V140v-0.6v-0.6v-0.6v-2.4v-0.6v-0.6V134v-0.6v-0.6V131v-0.6
			v-0.6v-0.6v-0.6V128v-0.6v-0.6v-0.6v-0.6V125v-0.6v-0.6v-0.6l0-0.6v-0.6l0-0.6v-0.6l0-0.6l0-0.6v-0.6v-5.4v-0.6v-0.6l0-0.6v-0.6
			l0-0.6l0-0.6l0-0.6v-1.2l0-0.6l0-0.6l0-0.6l0-2.4v-0.6l0-0.6l0-1.8l0-0.6l0-6.6l0-0.6l0-0.6l0-0.6l0-0.6l0-0.6l0-0.6l0.1-0.6
			l0-0.6l0.3-0.6l0.2-0.6l0.2-0.6l0.2-0.6l0-0.6l0-0.6l0.2-3l0.2-3l0.1-0.6l4.7-0.6l2.8-1.2l0.9-0.6l2-0.6l26-0.6l12.8-0.6l4.6-1.2
			l22.6-0.6l95.4-0.6l30.5-0.6l24.5-7.8l629.5-0.6V36"/>
		<path class="st7" d="M1184,783V147.8v-0.6v-6v-3v-0.6V125v-5.4v-15.5v-1.8V86.2V72.5v-1.2v-1.8v-2.4v-1.2l0-29.9"/>
		<path class="st7" d="M1184,783V177v-7.2v-2.4v-3v-1.2v-1.2v-0.6v-1.2v-0.6v-0.6v-0.6v-0.6v-0.6v-0.6v-0.6v-0.6v-0.6v-0.6v-0.6
			v-0.6v-0.6v-0.6v-0.6v-1.2v-0.6v-0.6v-0.6v-0.6v-0.6v-0.6V146v-0.6v-0.6v-0.6v-0.6V143v-0.6v-0.6v-0.6V140v-0.6v-0.6v-0.6v-0.6
			V137v-0.6v-1.2v-0.6V134v-0.6v-0.6v-0.6v-0.6V131v-0.6v-0.6v-0.6v-0.6V128v-0.6v-0.6v-0.6v-0.6V125v-0.6v-0.6v-0.6v-0.6v-0.6v-0.6
			v-0.6v-1.2v-0.6v-3v-0.6v-0.6v-0.6v-0.6v-0.6v-0.6v-0.6v-0.6v-0.6v-0.6v-0.6v-0.6v-1.2v-0.6v-1.2v-0.6v-0.6v-0.6l0-1.2v-0.6l0-1.2
			l0-0.6l0-0.6l0-0.6l0-0.6l0-0.6l0-0.6l0-0.6l0-0.6l0-0.6l0-4.2l0-0.6v-0.6l0.1-0.6l0.1-1.2l0-0.6l0.5-0.6l0.4-0.6l0.4-3.6l0.2-2.4
			l1.9-1.2l2-1.8l2.1-0.6l2.5-0.6l1.8-3.6l6.9-0.6l3.8-1.2l22.6-1.2l32.9-3l95.4-4.8l598.1-0.6L2042,36"/>
		<path class="st7" d="M1184,783V197.4v-1.8v-1.2v-0.6v-1.2v-1.2v-1.2v-0.6V189v-0.6v-0.6v-0.6v-3v-0.6V183v-0.6v-0.6v-1.2V180v-0.6
			v-0.6v-0.6v-0.6V177v-0.6v-0.6v-0.6v-0.6v-1.2v-0.6v-0.6v-0.6v-0.6v-0.6v-0.6v-0.6v-0.6v-0.6v-0.6v-0.6v-0.6v-0.6v-0.6v-0.6v-0.6
			v-0.6v-0.6v-0.6v-0.6v-0.6v-0.6v-0.6v-0.6v-0.6v-0.6v-0.6v-0.6v-0.6v-0.6v-0.6v-0.6v-0.6v-0.6v-1.8v-0.6v-2.4v-0.6v-0.6v-0.6V146
			v-0.6v-0.6v-0.6V143v-1.2v-0.6v-0.6v-1.8v-0.6v-0.6V137v-0.6v-0.6v-0.6V134v-0.6v-0.6v-1.2V131v-0.6v-0.6v-0.6v-0.6V128v-0.6v-0.6
			v-0.6v-1.8v-0.6v-2.4v-1.8v-0.6v-0.6v-0.6v-0.6v-1.2v-0.6v-0.6v-1.2v-1.8v-0.6v-0.6v-1.8v-0.6v-0.6v-0.6v-0.6l0-1.2v-0.6v-0.6
			v-0.6v-0.6l0-0.6v-0.6l0-0.6v-1.2l0-0.6l0-0.6v-6l0-0.6v-0.6l0-0.6l0-0.6l0-5.4l0-0.6l0-0.6l0-1.2V82l0-0.6l0-0.6l0-0.6l0-1.8
			l0-0.6l0-3l0-0.6l0-1.2l0-1.2l0-4.2l0-0.6l0-0.6l0-0.6l0-0.6l0.1-0.6l0.2-0.6l0-0.6l0-0.6l0.1-0.6l0.1-0.6l0.3-0.6l0.2-0.6
			l0.1-0.6l0-0.6l0.5-0.6l0-0.6l0.1-0.6l0.2-0.6l0.3-0.6l1.6-0.6l0.7-0.6l0-1.2l1.1-0.6l0.1-1.2l0.2-0.6l0.7-0.6l1.5-0.6l7.1-0.6
			l15.5-0.6l18.6-0.6l21.5-0.6l2.2-0.6l2.2-1.2l24.9-0.6l14.8-0.6l57.5-0.6l19-0.6l133.4-0.6l137.2-0.6l384.8-1.8L2042,36"/>
		<path class="st7" d="M1184,783V169.9v-6v-1.8v-1.8v-1.8v-1.8v-0.6v-1.2v-1.2v-1.2v-0.6v-3v-0.6v-0.6v-1.2V146v-0.6v-0.6v-0.6v-0.6
			V143v-0.6v-0.6v-0.6v-0.6V140v-0.6v-0.6v-0.6v-0.6V137v-0.6v-0.6v-0.6v-0.6V134v-0.6v-0.6v-0.6v-0.6V131v-0.6v-0.6v-0.6v-0.6V128
			v-0.6v-0.6v-0.6v-0.6V125v-0.6v-0.6v-0.6v-0.6v-0.6v-0.6v-0.6v-0.6v-0.6v-0.6v-0.6v-1.2v-0.6v-0.6v-0.6v-0.6v-0.6v-0.6v-0.6v-0.6
			v-0.6v-0.6v-0.6v-0.6v-0.6v-0.6v-0.6v-0.6v-0.6v-0.6v-0.6v-0.6v-0.6v-0.6v-0.6v-0.6v-0.6v-0.6v-1.8v-0.6v-0.6v-0.6v-0.6V97v-1.8
			v-0.6V94v-0.6v-1.8V91v-0.6v-0.6V88v-0.6v-0.6v-0.6v-0.6V85v-0.6v-0.6v-0.6v-0.6V82v-0.6l0-0.6v-0.6v-0.6V79l0-0.6l0-0.6v-0.6
			l0-0.6l0-0.6l0-0.6v-0.6l0-0.6l0-0.6l0-0.6l0-1.2l0-0.6l0-0.6l0-10.8l0-0.6l0-0.6l0.1-0.6l0-0.6l0-1.2l0.1-0.6l0.1-0.6l0.2-0.6
			l0.1-0.6l0.2-4.8l0.5-0.6l0-1.2l0.2-1.8l9.3-1.8l0.2-0.6l6.4-0.6l15.8-0.6l70.6-0.6l625.7-0.6l123-1.2l5.3-3.6"/>
		<path class="st7" d="M1184,783V219.5v-2.4v-0.6v-1.2v-0.6v-1.2v-0.6v-1.2v-0.6v-0.6v-0.6v-0.6v-0.6v-0.6v-0.6v-0.6v-0.6v-0.6v-0.6
			v-0.6v-0.6v-0.6v-0.6v-0.6v-0.6v-0.6v-0.6v-0.6v-0.6v-0.6v-0.6v-0.6v-1.2v-0.6V195v-0.6v-0.6v-0.6v-0.6V192v-0.6v-0.6v-0.6v-0.6
			V189v-0.6v-0.6v-0.6v-0.6V186v-0.6v-0.6v-0.6v-0.6v-2.4v-0.6V180v-0.6v-0.6v-0.6v-0.6v-1.2v-0.6v-0.6v-0.6V174v-0.6v-0.6v-0.6
			v-0.6v-0.6v-0.6v-0.6v-0.6v-0.6v-0.6v-0.6v-0.6v-1.2v-0.6v-0.6v-0.6v-0.6v-8.4v-0.6v-0.6v-0.6v-0.6v-0.6v-0.6v-0.6v-0.6v-0.6v-0.6
			v-0.6v-0.6v-0.6v-0.6V146v-0.6v-0.6v-3.6v-0.6V140l0-0.6v-0.6v-0.6v-1.8v-0.6v-0.6v-0.6l0-0.6v-0.6l0-0.6v-0.6v-1.8l0-0.6l0-0.6
			l0-1.8l0-0.6l0-0.6v-0.6l0-0.6l0-0.6l0-0.6l0-0.6l0-0.6l0-0.6l0-3l0-0.6l0-0.6l0-0.6l0-0.6l0-0.6l0-0.6l0-0.6l0-0.6l0-9.6l0-0.6
			l0.1-1.2l0.1-0.6l0-0.6l0.5-0.6l0.7-3.6l0.2-9.6l0.2-0.6l2.5-0.6l4.8-1.2l2.7-0.6l21.5-0.6l11.8-1.2l63.6-0.6l64.7-2.4L2042,36"/>
		<path class="st7" d="M1184,783V147.8v-3.6V143v-0.6v-1.8v-4.8v-0.6V131v-0.6v-3.6v-0.6v-5.4v-0.6v-0.6v-0.6v-1.2v-0.6v-3.6v-1.2
			v-3v-0.6v-1.2v-4.2v-0.6l0-0.6v-0.6l0-1.2l0-0.6l0-1.2l0-0.6l0.2-0.6l1.1-0.6l0.1-2.4l0.2-3l0-0.6l2.8-1.2l1.1-10.8l1-0.6l1.6-7.2
			l3.8-3l30.4-0.6l82.1-0.6l214.3-0.6l173-0.6L2042,36"/>
		<path class="st7" d="M1184,783V178.8v-6v-1.2v-0.6v-1.8v-0.6v-2.4v-1.8v-1.2v-0.6v-0.6v-1.2v-1.8v-1.2v-1.2v-0.6v-0.6v-0.6v-0.6
			v-0.6v-0.6v-1.2v-0.6v-0.6v-1.8v-0.6v-1.8V146v-0.6v-0.6v-0.6v-0.6V143v-0.6v-1.8V140v-0.6v-0.6v-0.6v-0.6V137v-1.2v-1.2v-1.2
			v-1.2v-0.6v-1.2v-1.2v-0.6V128v-0.6v-0.6v-2.4v-0.6v-2.4v-0.6v-0.6v-1.8v-0.6v-1.2v-0.6v-0.6v-0.6v-0.6v-3.6v-5.4v-0.6v-0.6v-0.6
			v-0.6v-0.6v-0.6v-0.6v-0.6v-1.2v-1.8v-1.8V94v-2.4V91v-0.6v-1.2v-0.6V88v-0.6v-0.6v-0.6v-3v-0.6V82v-0.6v-0.6l0-1.2V79l0-0.6
			l0-0.6l0-0.6l0-3l0-0.6v-1.8l0-0.6l0-0.6l0-0.6l0-0.6l0-0.6l0-1.2l0-0.6l0-1.8l0.1-1.2l0.2-1.8l0.2-0.6l0.6-0.6l0-0.6l0.1-0.6
			l0.1-1.2l0.2-0.6l0.2-6l5.2-0.6l0.7-1.8l0.1-0.6l0.8-3l1.4-1.2l1.2-3.6l0.9-0.6l4.8-0.6l7.4-0.6l7.5-2.4l0.8-1.2"/>
		<path class="st7" d="M1184,783V215.3v-29.9v-29.9v-29.9V95.8l0-29.9l0.6-29.9"/>
		<path class="st8" d="M1184,783v-0.6l0-0.6l0-0.6l0-0.6l0-0.6l0.2-0.6l0.2-0.6l0.1-0.6l0.4-0.6l0-0.6l0.6-0.6l0.1-0.6l0.5-0.6
			l0.3-0.6l0.2-0.6l0.3-0.6l0.1-0.6l0.5-0.6l0.4-0.6l0.3-0.6l0-0.6l0.3-0.6l0.4-0.6l0.5-0.6l0.4-0.6l0.4-0.6l0.5-0.6l0-0.6l0.7-0.6
			l0.4-0.6l0.1-0.6l0.2-0.6l0.1-0.6l0.1-0.6l0.1-0.6l0.1-0.6l1.1-0.6l0.4-0.6l0.1-0.6l0.3-0.6l0.4-0.6l0.3-0.6l0.1-0.6l0.4-0.6
			l0.5-0.6l0.4-0.6l0.7-0.6l0.6-0.6l1.9-0.6l0.3-0.6l0.1-0.6l0.7-0.6l0-0.6l0.4-0.6l0.6-0.6l0.5-0.6l0.3-0.6l0.8-0.6l0.1-0.6
			l0.7-0.6l0.1-0.6l0.3-0.6l0-0.6l0.3-0.6l0.6-0.6l0.3-0.6l0.7-0.6l0-0.6l1.3-0.6l0.4-1.2l0.3-0.6l0.2-0.6l0-0.6l0.2-0.6l0.3-0.6
			l1.2-0.6l0-0.6l0.7-0.6l0.1-0.6l0.7-0.6l1-0.6l0.2-0.6l1.4-0.6l0.3-0.6l1.3-0.6l0.6-0.6l0.1-0.6l0.5-0.6l0.2-0.6l0.6-0.6l0.4-0.6
			l0.7-0.6l1.9-0.6l0.3-0.6l0.1-0.6l0.4-0.6l0.5-0.6l0.1-0.6l1-0.6l0.1-0.6l0.1-0.6l1-0.6l0.1-0.6l1-0.6l1.4-0.6l0.5-0.6l0.1-0.6
			l0.4-0.6l1.2-0.6l0.7-0.6l0.3-0.6l0.2-0.6l0-0.6l2.2-0.6l0-0.6l1.4-0.6l0.6-0.6l0.3-0.6l0.1-0.6l0.4-0.6l0.1-0.6l0.5-0.6l0.7-0.6
			l1-0.6l0.9-0.6l0-0.6l0.3-0.6l0.3-0.6l0.1-0.6l1.7-0.6l1.2-0.6l0.2-0.6l1.1-0.6l0.2-0.6l0.2-0.6l4.4-0.6l0.2-0.6l1.7-0.6l0.3-0.6
			l0.8-0.6l0.8-0.6l0.1-0.6l0-0.6l0.4-0.6l0.2-0.6l0.9-0.6l0.9-0.6l0.1-0.6l1-0.6l0.7-0.6l0-0.6l0.2-0.6l0.4-0.6l1.2-0.6l0.4-0.6
			l0.2-0.6l0.2-0.6l0.6-0.6l0.4-0.6l0.1-0.6l0.2-0.6l0.9-0.6l0.6-1.2l1.2-0.6l0.3-0.6l0.3-0.6l0.2-0.6l0.8-0.6l0-0.6l0.7-0.6
			l3.8-0.6l0.8-0.6l0.2-0.6l0.9-0.6l0.3-0.6l0.3-0.6l0.3-0.6l1.8-0.6l0.2-0.6l0.2-0.6l0.8-0.6l0.6-0.6l0.2-0.6l0.9-0.6l0.2-0.6
			l2-0.6l1.4-0.6l0.7-0.6l0.1-0.6l0.1-0.6l0.5-0.6l0.1-0.6l0.9-0.6l6.3-0.6l0.7-0.6l0.7-0.6l0.6-0.6l0.4-0.6l0.2-0.6l0.9-0.6
			l0.6-0.6l0.4-0.6l0.9-0.6l1.4-0.6l0.5-0.6l0.7-0.6l0.5-0.6l0.1-0.6l1.3-0.6l0.4-0.6l0.5-0.6l0.5-0.6l6.4-0.6l0.2-0.6l0.4-0.6
			l0.3-0.6l1.6-0.6l0.7-0.6l2.6-0.6l0.3-0.6l0.1-0.6l0.1-0.6l0.4-0.6l0.2-0.6l0.2-0.6l0.3-0.6l0.1-0.6l0.5-0.6l1.2-0.6l0.7-0.6
			l0.5-0.6l0.3-0.6l0.2-0.6l0.4-0.6l0.8-0.6l0.6-0.6l0.1-0.6l0.3-0.6l0-0.6l0.2-0.6l0.2-0.6l1.1-0.6l1.1-0.6l0.4-0.6l0.3-0.6
			l1.2-0.6l0.4-0.6l1.4-0.6l2.6-0.6l0.3-0.6l0.2-0.6l0.1-0.6l3.6-0.6l0.8-0.6l0.3-0.6l0.8-0.6l0-0.6l0.4-0.6l1-0.6l0.3-0.6l0.4-0.6
			l0-0.6l1.2-0.6l0.8-0.6l0.1-0.6l0.8-0.6l0.8-0.6l0.2-0.6l0.3-0.6l1.1-0.6l0.6-0.6l0.4-0.6l0.1-0.6l0-0.6l0-0.6l0.4-0.6l0-0.6
			l0.6-0.6l0.2-0.6l0.4-0.6l0.6-0.6l3.1-0.6l0.2-0.6l0.2-0.6l0.5-0.6l0.6-0.6l0.9-0.6l0-0.6l0.5-0.6l0.2-0.6l2.5-0.6l0.4-0.6
			l0.3-0.6l0.3-0.6l0.1-0.6l0.9-0.6l0.3-0.6l0.2-0.6l0.2-0.6l1.8-0.6l1.1-0.6l0.3-0.6l0.5-0.6l1.2-0.6l1.1-0.6l0.3-0.6l0-0.6
			l0.2-0.6l0-0.6l0.3-0.6l0.7-0.6l1-0.6l0.9-0.6l1-0.6l0.2-0.6l1.6-0.6l2.5-0.6l0.3-0.6l0.1-0.6l0-0.6l0.4-0.6l0.1-0.6l0.5-0.6
			l0.5-0.6l0.8-0.6l0.6-0.6l0-0.6l0.8-0.6l0-0.6l0.7-0.6l0.8-0.6l1.3-0.6l0.9-0.6l0.5-0.6l0.7-0.6l1.3-0.6l0.7-0.6l0.2-0.6l1.2-0.6
			l0.4-0.6l1.5-0.6l0.2-0.6l0.7-0.6l1.1-0.6l2.4-0.6l0.3-0.6l0.4-0.6l0.5-0.6l0.9-0.6l0.2-0.6l1.7-0.6l0.7-0.6l0.3-0.6l0.1-0.6
			l0-0.6l0.1-0.6l2-0.6l0.1-0.6l1-0.6l1.1-0.6l2.1-0.6l0.2-0.6l0.7-0.6l0.7-0.6l0.3-0.6l0.5-0.6l0.8-0.6l0.8-0.6l0.9-0.6l0.1-0.6
			l0.6-0.6l0.4-0.6l0.8-0.6l0.2-0.6l0.8-0.6l0-0.6l0.4-0.6l0.4-0.6l0.3-0.6l0.5-0.6l0.1-0.6l1.3-0.6l0.6-0.6l0.7-0.6l1.1-0.6
			l1.7-0.6l1.2-0.6l0.4-0.6l1-0.6l0.2-0.6l0.2-0.6l0.2-0.6l0.7-0.6l0.5-0.6l0.4-0.6l1.7-0.6l0.7-0.6l0.1-0.6l0.3-0.6l0.1-0.6
			l0.2-0.6l0.1-0.6l0.2-0.6l0.5-0.6l0-0.6l0.4-0.6l2.2-0.6l0.8-0.6l0.9-0.6l0.8-0.6l0.3-0.6l0.4-0.6l0.1-0.6l1.1-0.6l0.5-0.6
			l0.1-0.6l1.5-0.6l2.4-0.6l1.4-1.2l1.6-0.6l2.3-0.6l1.1-0.6l0.2-0.6l1.7-0.6l0.3-0.6l0.4-0.6l0.5-0.6l1.4-0.6l0.1-0.6l1.7-0.6
			l1-0.6l0-0.6l0.2-0.6l0.5-0.6l0.8-0.6l0.4-0.6l0.6-0.6l0.1-0.6l1.4-0.6l2.4-0.6l2-0.6l0-0.6l0.4-0.6l0.8-0.6l0.4-0.6l0.2-0.6
			l1.3-0.6l2.8-0.6l0-0.6l0.5-0.6l2.1-0.6l0.6-0.6l0.3-0.6l0.1-0.6l0.4-0.6l2.2-0.6l0.6-0.6l0.4-0.6l0.1-0.6l1.4-0.6l1.5-0.6
			l1.3-0.6l0.3-0.6l0.1-0.6l1.1-0.6l0.3-0.6l0.7-0.6l0.3-0.6l0.3-0.6l0-0.6l0.3-0.6l0.8-0.6l0-0.6l0.5-0.6l0.2-0.6l0.7-0.6l1.9-0.6
			l0.7-0.6l1.7-0.6l0.4-0.6l0.9-0.6l0-0.6l0.9-0.6l0.1-0.6l0.2-0.6l0.3-0.6l2.3-0.6l0.2-0.6l1.2-0.6l1-0.6l0.7-0.6l0.7-0.6l0.3-0.6
			l0.4-0.6l0.6-0.6l0.3-0.6l0.5-0.6l0.3-0.6l2-0.6l0.8-0.6l0.1-0.6l0-0.6l0.6-0.6l0.3-0.6l0-0.6l0.3-0.6l0-0.6l0.5-0.6l0.4-0.6
			l0.7-0.6l0.2-0.6l0.2-0.6l0.2-0.6l0.1-0.6l0.1-0.6l1.9-0.6l2-0.6l3.4-0.6l0.1-0.6l0.4-1.8l0.1-0.6l2.3-0.6l0-0.6l0.1-0.6l0.7-0.6
			l0.1-0.6l0.5-0.6l1-0.6l0.1-0.6l0.2-0.6l0.7-0.6l1.9-0.6l0.5-0.6l2.7-0.6l0.9-0.6l0.1-0.6l0.4-0.6l0.1-0.6l0.1-0.6l0.7-0.6
			l0.2-0.6l0.3-0.6l1.1-0.6l0-0.6l0-0.6l1.6-0.6l1.4-0.6l0.3-0.6l0.5-0.6l0.4-0.6l0.9-0.6l0.1-0.6l0.8-0.6l1.9-0.6l0.2-0.6l0.5-0.6
			l1.4-0.6l0.9-0.6l0.1-0.6l0.1-0.6l0.3-0.6l0.6-0.6l1.5-0.6l1.8-0.6l1.4-0.6l0-0.6l3.9-0.6l0.3-0.6l0.8-0.6l1.5-0.6l0.2-0.6
			l0.3-0.6l2.4-0.6l0.2-0.6l2.1-0.6l0.5-0.6l0.2-0.6l0.1-0.6l0.7-0.6l0.4-0.6l0.3-0.6l0.3-0.6l0.1-0.6l0.6-1.2l0.3-0.6l2.7-0.6
			l2-0.6l0.1-0.6l0-0.6l0.6-0.6l0.3-0.6l0.2-0.6l0.8-0.6l0.5-0.6l0.1-0.6l1.1-0.6l1.1-0.6l1.4-0.6l1.1-0.6l0-0.6l0.4-0.6l0.5-0.6
			l0.1-0.6l0.3-0.6l0.6-0.6l1.4-0.6l0.7-0.6l0.1-0.6l2-0.6l0.5-0.6l0.6-0.6l3.4-0.6l1.7-0.6l0.1-0.6l0.3-0.6l0.6-0.6l0.3-0.6l2-0.6
			l0.1-0.6l0.1-0.6l0.5-0.6l0.4-0.6l0.5-0.6l0.1-0.6l0.1-0.6l1.3-0.6l0.2-0.6l0.3-0.6l1.1-0.6l1-0.6l0.2-0.6l0.4-0.6l1.4-0.6
			l0.1-0.6l1.6-0.6l0.4-0.6l0.1-0.6l0-0.6l0.1-0.6l0.8-0.6l1.5-0.6l2.5-0.6l1-0.6l0.2-0.6l0-0.6l0.3-0.6l0-0.6l0.2-0.6l0.4-0.6
			l1-0.6l0.8-0.6l1.4-0.6l0.7-0.6l0.4-0.6l1.6-0.6l0-0.6l0-0.6l0.4-0.6l0-0.6l0.5-0.6l0.6-0.6l0.3-0.6l0.7-0.6l1-0.6l0.3-0.6
			l0.9-0.6l0.1-0.6l0.3-0.6l0.9-0.6l0.2-0.6l0.5-0.6l0.7-1.2l0.9-0.6l1.6-0.6l0.1-0.6l0.3-0.6l0.5-0.6l1-0.6l0.2-0.6l0.4-0.6l0-0.6
			l0.7-0.6l0.2-0.6l0.2-0.6l1-0.6l0.9-0.6l1.7-0.6l0.4-0.6l0.1-0.6l3-0.6l1-0.6l0.2-0.6l0.7-0.6l0.2-0.6l0.2-0.6l1.7-0.6l0.5-0.6
			l0-0.6l0.4-0.6l0.5-0.6l0.9-0.6l0.7-0.6l2.5-0.6l0.1-0.6l0.8-0.6l0.5-0.6l0.8-0.6l0.2-0.6l0.3-0.6l1.3-0.6l0.9-0.6l0.3-0.6
			l0.3-0.6l1.1-0.6l0.1-0.6l1.2-0.6l2-0.6l0.6-0.6l0.7-0.6l1.3-0.6l0-0.6l0-0.6l1.1-0.6l2.1-0.6l1.1-0.6l0.1-0.6l0.1-0.6l0.1-0.6
			l0.3-0.6l4.6-0.6l0.7-0.6l0.6-0.6l0.7-0.6l0.3-0.6l0.2-0.6l1.1-0.6l0.2-0.6l0.9-0.6l0.2-0.6l0.2-0.6l1.5-0.6l0.3-0.6l0.4-0.6
			l0.4-0.6l0.7-0.6l0.5-0.6l0.1-0.6l1.2-0.6l1.2-0.6l1.6-0.6l0.1-0.6l1.6-0.6l0.1-0.6l1.6-0.6l0.3-0.6l1-0.6l0.8-0.6l0.1-0.6
			l1.7-0.6l0.1-0.6l0.8-0.6l0-0.6l0.8-0.6l0.9-0.6l1.2-0.6l1.4-0.6l0.5-0.6l1.1-0.6l2.1-0.6l0.4-0.6l1.9-0.6l0.7-0.6l1.1-0.6
			l0.2-0.6l1.1-0.6l0.5-0.6l0.5-0.6l0.8-0.6l0.4-0.6l0.2-0.6l0.8-0.6l0-0.6l0.5-0.6l0.4-0.6l0.2-0.6l0.6-0.6l0.8-0.6l2.6-0.6
			l1.2-0.6l1.3-0.6l1.7-0.6l0.2-0.6l0.1-0.6l0.3-0.6l1.3-0.6l0.3-0.6l0.2-0.6l0.8-0.6l0.1-0.6l0.1-0.6l0.4-0.6l0.2-0.6l0.1-0.6
			l0.3-0.6l2.4-0.6l0.1-0.6l0.3-0.6l1.3-0.6l0.5-0.6l0.2-0.6l0-0.6l0.4-0.6l1.5-0.6l1.1-0.6l0.7-0.6l0.1-0.6l1-0.6l0-0.6l0.3-0.6
			l1.2-0.6l0.8-0.6l0.1-0.6l0.1-0.6l1.2-0.6l0.3-0.6l1.1-0.6l1.1-0.6l1.7-0.6l0.3-0.6l0.7-0.6l0.3-0.6l0.2-0.6l3-0.6l0.3-0.6
			l1.2-0.6l1.2-0.6l0.7-0.6l0-0.6l0.2-0.6l1.5-0.6l0-0.6l2.4-0.6l0.1-0.6l0.4-0.6l2-0.6l1.2-0.6l0.4-0.6l0.5-0.6l1.8-0.6l3.2-0.6
			l0.3-0.6l0.2-0.6l1.4-0.6l0.1-0.6l0.7-0.6l0.6-0.6l0.8-0.6l0.4-0.6l5-0.6l0.1-0.6l0.2-0.6l0.3-0.6l0.2-0.6l0.3-0.6l0.5-0.6
			l0.5-0.6l0.8-0.6l0.1-0.6l0.9-0.6l0.8-0.6l0.5-0.6l0.1-0.6l0.1-0.6l0.2-0.6l0.7-0.6l0.4-0.6l3.3-0.6l0.4-0.6l0.7-0.6l1.5-0.6
			l0.9-0.6l1.5-0.6l1.2-0.6l1.2-0.6l0-0.6l0.6-0.6l0.4-0.6l1.3-0.6l0.3-0.6l0.7-0.6l0.1-0.6l0-0.6l0.9-0.6l0.1-0.6l0.3-0.6l0.5-0.6
			l0.3-0.6l2.2-0.6l0.2-0.6l0.2-0.6l0-0.6l1.4-0.6l0.6-0.6l0.1-0.6l0.3-0.6l2.3-0.6l0.1-0.6l0.3-0.6l1.6-0.6l0.9-0.6l1.3-0.6
			l0.7-0.6l2.8-0.6l0.4-0.6l0.7-0.6l1-0.6l0-0.6l1-0.6l0.2-0.6l0.8-0.6l0.9-0.6l0.3-0.6l0.5-0.6l0.2-0.6l2.3-0.6l0.4-0.6l1-0.6
			l1.9-0.6l1.3-0.6l2-0.6l2.5-0.6l0.3-0.6l1.9-0.6l3.6-0.6l0.9-0.6l1.1-0.6l1.4-0.6l0.9-0.6l0.1-0.6l0.9-0.6l0.3-0.6l1.5-0.6
			l0.2-0.6l0.4-0.6l0.7-0.6l0.3-0.6l1.9-0.6l0.6-0.6l0.3-0.6l0.3-0.6l0.4-0.6l1-0.6l1-0.6l0.7-0.6l0-0.6l4.8-0.6l0.5-0.6l1.8-0.6
			l0.7-0.6l0.5-0.6l0.2-1.8l1.8-0.6l1-0.6l2.4-0.6l0-0.6l0.6-0.6l3-0.6l0.3-0.6l0.9-0.6l0.1-0.6l1.1-0.6l0-0.6l0.5-0.6l0.3-0.6
			l0.9-0.6l0-0.6l0.5-0.6l0.1-0.6l0.2-0.6l0.1-0.6l0.2-0.6l0.4-0.6l0.8-0.6l2.2-0.6l1.6-0.6l0.2-0.6l0.1-0.6l4.4-0.6l0.3-0.6
			l1.8-0.6l0.7-0.6l0.8-0.6l0.4-0.6l0.1-0.6l1.8-0.6l0.9-0.6l0.1-0.6l1.2-0.6l0.6-0.6l0.4-0.6l0.5-0.6l0.1-0.6l0-0.6l0.2-0.6
			l0.7-0.6l0.4-0.6l0-0.6l0.4-0.6l0.3-0.6l0.2-0.6l2.5-0.6l1.7-0.6l0.5-0.6l0.6-0.6l0.4-0.6l1.1-0.6l0.8-0.6l1.7-0.6l1.3-0.6
			l0.5-0.6l0.7-0.6l0.4-0.6l0.1-0.6l0.7-0.6l1.2-0.6l0-0.6l1.5-0.6l0.6-0.6l0.7-0.6l0.2-0.6l0.8-0.6l1.3-0.6l0.6-0.6l0.9-0.6
			l0.2-0.6l0.7-0.6l1.4-0.6l0.9-0.6l0.2-0.6l0.3-0.6l1.6-0.6l1.1-0.6l0.9-0.6l0.3-0.6l0.4-0.6l1.2-0.6l0.9-0.6l0-0.6l0.2-0.6
			l0.9-0.6l1.1-0.6l1-0.6l0.6-0.6l0.6-0.6l0.7-0.6l2.9-0.6l0.4-0.6l0.4-0.6l0.7-0.6l0.2-0.6l1-0.6l0.4-0.6l0.8-0.6l0.6-0.6l0.1-0.6
			l0.1-0.6l1.6-0.6l2.3-0.6l2.2-0.6l0-0.6l1-0.6l0.2-0.6l0.6-0.6l0.9-0.6l3.2-0.6l0.2-0.6l0.6-0.6l0.6-0.6l0.3-0.6l0.2-0.6l0.6-0.6
			l1.7-0.6l0.5-0.6l0.7-0.6l0.1-0.6l0.3-0.6l1.3-0.6l0.7-0.6l0.4-0.6l2.1-0.6l0.9-0.6l2.1-0.6l1.4-0.6l0.2-0.6l0.4-0.6l0-0.6
			l0.9-0.6l0.3-0.6l0.1-0.6l0.2-0.6l0.3-0.6l0.5-0.6l0.2-0.6l0.8-0.6l0.1-0.6l1.5-0.6l0.1-0.6l1.6-0.6l0.4-0.6l0.2-0.6l0.2-0.6
			l1.4-0.6l0.5-0.6l0.8-0.6l0.1-0.6l0.5-0.6l1.8-0.6l0.6-0.6l0.1-0.6l1.6-0.6l0.7-0.6l0.9-0.6l1.4-0.6l0.3-0.6l0.8-0.6l0.1-0.6
			l0.3-0.6l0-0.6l0.1-0.6l0.3-0.6l0.4-1.2l1-0.6l0.7-0.6l0.2-0.6l1-0.6l1.8-0.6l1-0.6l0-0.6l0.1-0.6l0.1-0.6l0.3-0.6l0.9-0.6
			l1.5-0.6l1.5-0.6l1.3-0.6l2.3-0.6l0.2-0.6l0.1-0.6l0.5-0.6l1.2-0.6l0.6-0.6l3-0.6l0.7-0.6l1.7-0.6l0.5-0.6l1.4-0.6l0.5-0.6
			l0.8-0.6l0-0.6l0.4-0.6l0.3-0.6l0.6-0.6l0-0.6l0-0.6l1.6-0.6l0.4-0.6l0.2-0.6l0.1-0.6l1.7-0.6l1.4-0.6l0.7-0.6l0.1-0.6l0.3-0.6
			l2.1-0.6l0.7-0.6l0.5-0.6l1.9-0.6l0.4-0.6l1-0.6l0.4-0.6l1.1-0.6l0.3-0.6l0.3-0.6l0.1-0.6l0.3-0.6l0.5-0.6l0-0.6l0.1-0.6l0.6-0.6
			l0.7-0.6l0.1-0.6l0.3-0.6l0.9-0.6l0.3-0.6l0.6-0.6l1.3-0.6l0.3-0.6l0.8-0.6l1.7-0.6l1-0.6l0.4-0.6l1-0.6l0.8-0.6l0.5-0.6l0.5-0.6
			l0.7-0.6l0.9-0.6l1.5-0.6l2.3-0.6l1-0.6l0.2-0.6l1-0.6l1.1-0.6l0.5-0.6l0.4-0.6l0-0.6l0-0.6l0.1-0.6l0-0.6l1.3-0.6l0.1-0.6
			l0.2-0.6l0.3-0.6l0.1-0.6l0.1-0.6l0.8-0.6l0.1-0.6l0-0.6l1-0.6l0-0.6l0.3-0.6l0.7-0.6l0-0.6l0.2-0.6l0.1-0.6l0.5-0.6l0.7-0.6
			l0-0.6l0.1-0.6l0.7-0.6"/>
	</g>
	<g>
		<line class="st9" x1="1184" y1="783" x2="2042" y2="36"/>
	</g>
	<g>
		<path class="st10" d="M1184,783V214.7v-1.2v-3v-3v-0.6v-1.2v-0.6v-0.6v-0.6v-0.6v-0.6v-0.6v-0.6v-0.6v-1.8v-0.6v-2.4v-0.6V195
			v-0.6v-0.6v-0.6v-0.6V192v-0.6v-0.6v-0.6v-3V186v-0.6v-7.8V177v-0.6v-0.6v-0.6v-0.6V174v-0.6v-0.6v-0.6v-0.6v-0.6v-0.6v-0.6v-1.2
			v-3v-0.6v-0.6v-0.6v-10.2v-0.6v-0.6v-1.2v-0.6v-0.6l0-0.6l0-0.6v-1.8v-0.6l0-9l0-0.6l0-1.8l0-0.6l0-0.6l0-6l1.1-1.2l0.4-0.6
			l0.2-0.6l0.3-0.6l73.1-1.2l3-0.6l768.7-0.6L2042,36"/>
	</g>
	<g>
		<path class="st11" d="M2021,762V617h-554v145H2021z"/>
	</g>
	<g transform="translate(1561,643.5)">
		<text transform="matrix(1 0 0 1 0 14.5)" class="st4 st5">Empirical CDF (K-MHTC)</text>
	</g>
	<g>
		<line class="st10" x1="1475" y1="643.5" x2="1555" y2="643.5"/>
	</g>
	<g transform="translate(1561,689.5)">
		<text transform="matrix(1 0 0 1 0 14.5)" class="st4 st5">Empirical CDF (Random)</text>
	</g>
	<g>
		<line class="st8" x1="1475" y1="689.5" x2="1555" y2="689.5"/>
	</g>
	<g transform="translate(1561,735.5)">
		<text transform="matrix(1 0 0 1 0 14.5)" class="st4 st5">Uniform CDF</text>
	</g>
	<g>
		<line class="st9" x1="1475" y1="735.5" x2="1555" y2="735.5"/>
	</g>
	<g>
		<path class="st12" d="M1467,762V617h554v145H1467z"/>
	</g>
</g>
</svg>
