<?xml version="1.0" encoding="utf-8"?>
<!-- Generator: Adobe Illustrator 26.0.1, SVG Export Plug-In . SVG Version: 6.00 Build 0)  -->
<svg version="1.1" id="图层_1" xmlns="http://www.w3.org/2000/svg" xmlns:xlink="http://www.w3.org/1999/xlink" x="0px" y="0px"
	 viewBox="0 0 445.5 395.9" style="enable-background:new 0 0 445.5 395.9;" xml:space="preserve">
<style type="text/css">
	.st0{fill:none;stroke:#262626;stroke-width:4;stroke-linecap:square;stroke-linejoin:round;stroke-miterlimit:10;}
	.st1{fill:#262626;}
	.st2{font-family:'ArialMT';}
	.st3{font-size:32px;}
	.st4{font-size:35.2px;}
	.st5{fill:none;stroke:#000000;stroke-width:1.3333;stroke-linejoin:bevel;stroke-miterlimit:1;stroke-dasharray:10,6;}
	.st6{fill:none;stroke:#000000;stroke-width:1.3333;stroke-linejoin:round;stroke-miterlimit:10;}
	.st7{fill:none;stroke:#000000;stroke-width:5.3333;stroke-linejoin:round;stroke-miterlimit:10;}
	.st8{fill:#666666;}
	.st9{fill:#1F77B4;fill-opacity:0.502;}
	.st10{fill:none;stroke:#1F77B4;stroke-width:4;stroke-linecap:square;stroke-miterlimit:10;}
	.st11{fill:#FF7F0E;fill-opacity:0.502;}
	.st12{fill:none;stroke:#FF7F0E;stroke-width:4;stroke-linecap:square;stroke-miterlimit:10;}
</style>
<g>
	<g>
		<line class="st0" x1="114.9" y1="340.7" x2="415.9" y2="340.7"/>
		<line class="st0" x1="190.2" y1="340.7" x2="190.2" y2="337.4"/>
		<line class="st0" x1="340.7" y1="340.7" x2="340.7" y2="337.4"/>
		<line class="st0" x1="190.2" y1="10.7" x2="190.2" y2="14"/>
		<line class="st0" x1="340.7" y1="10.7" x2="340.7" y2="14"/>
	</g>
	<g transform="translate(174.25,341.7333)">
		<text transform="matrix(1 0 0 1 -7.5861 43.7356)" class="st1 st2 st3">CU</text>
	</g>
	<g transform="translate(324.75,341.7333)">
		<text transform="matrix(1 0 0 1 -46.5861 43.7356)" class="st1 st2 st3">K-MHTC</text>
	</g>
	<g>
		<line class="st0" x1="114.9" y1="340.7" x2="114.9" y2="10.7"/>
		<line class="st0" x1="415.9" y1="340.7" x2="415.9" y2="10.7"/>
		<line class="st0" x1="114.9" y1="243" x2="118.2" y2="243"/>
		<line class="st0" x1="114.9" y1="139.5" x2="118.2" y2="139.5"/>
		<line class="st0" x1="114.9" y1="36.1" x2="118.2" y2="36.1"/>
		<line class="st0" x1="415.9" y1="243" x2="412.6" y2="243"/>
		<line class="st0" x1="415.9" y1="139.5" x2="412.6" y2="139.5"/>
		<line class="st0" x1="415.9" y1="36.1" x2="412.6" y2="36.1"/>
	</g>
	<g transform="translate(87.2667,232.2414)">
		<text transform="matrix(1 0 0 1 -20.0861 23.2356)" class="st1 st2 st3">10</text>
	</g>
	<g transform="translate(87.2667,128.7931)">
		<text transform="matrix(1 0 0 1 -20.0861 23.2356)" class="st1 st2 st3">20</text>
	</g>
	<g transform="translate(87.2667,25.3448)">
		<text transform="matrix(1 0 0 1 -20.0861 23.2356)" class="st1 st2 st3">30</text>
	</g>
	<g transform="translate(44.2667,164.9998) rotate(-90)">
		<text transform="matrix(1 0 0 1 -74.7357 7.9139)" class="st1 st2 st4">Iteration</text>
	</g>
	<g>
		<line class="st5" x1="190.2" y1="243" x2="190.2" y2="149.9"/>
		<line class="st5" x1="340.7" y1="284.4" x2="340.7" y2="243"/>
		<line class="st5" x1="190.2" y1="325.7" x2="190.2" y2="305"/>
		<line class="st5" x1="340.7" y1="325.7" x2="340.7" y2="315.4"/>
		<line class="st6" x1="171.4" y1="149.9" x2="209" y2="149.9"/>
		<line class="st6" x1="321.9" y1="243" x2="359.5" y2="243"/>
		<line class="st6" x1="171.4" y1="325.7" x2="209" y2="325.7"/>
		<line class="st6" x1="321.9" y1="325.7" x2="359.5" y2="325.7"/>
		<path class="st6" d="M152.5,305V243h75.2V305H152.5"/>
		<path class="st6" d="M303,315.4v-31h75.2v31H303"/>
	</g>
	<g>
		<line class="st7" x1="152.5" y1="284.4" x2="227.8" y2="284.4"/>
		<line class="st7" x1="303" y1="305" x2="378.3" y2="305"/>
	</g>
	<g transform="translate(174.25,128.7931)">
		<circle class="st8" cx="15.9" cy="10.7" r="3.1"/>
	</g>
	<g transform="translate(174.25,128.7931)">
		<path class="st8" d="M15.9,8.3c1.4,0,2.5,1.1,2.5,2.5l0,0c0,1.4-1.1,2.5-2.5,2.5s-2.5-1.1-2.5-2.5S14.6,8.3,15.9,8.3z M15.9,6.9
			c-2.1,0-3.8,1.7-3.8,3.8s1.7,3.8,3.8,3.8s3.8-1.7,3.8-3.8l0,0C19.7,8.6,18,6.9,15.9,6.9z"/>
	</g>
	<g transform="translate(174.25,128.7931)">
		<circle class="st8" cx="15.9" cy="10.7" r="3.1"/>
	</g>
	<g transform="translate(174.25,128.7931)">
		<path class="st8" d="M15.9,8.3c1.4,0,2.5,1.1,2.5,2.5l0,0c0,1.4-1.1,2.5-2.5,2.5s-2.5-1.1-2.5-2.5S14.6,8.3,15.9,8.3z M15.9,6.9
			c-2.1,0-3.8,1.7-3.8,3.8s1.7,3.8,3.8,3.8s3.8-1.7,3.8-3.8l0,0C19.7,8.6,18,6.9,15.9,6.9z"/>
	</g>
	<g transform="translate(174.25,128.7931)">
		<circle class="st8" cx="15.9" cy="10.7" r="3.1"/>
	</g>
	<g transform="translate(174.25,128.7931)">
		<path class="st8" d="M15.9,8.3c1.4,0,2.5,1.1,2.5,2.5l0,0c0,1.4-1.1,2.5-2.5,2.5s-2.5-1.1-2.5-2.5S14.6,8.3,15.9,8.3z M15.9,6.9
			c-2.1,0-3.8,1.7-3.8,3.8s1.7,3.8,3.8,3.8s3.8-1.7,3.8-3.8l0,0C19.7,8.6,18,6.9,15.9,6.9z"/>
	</g>
	<g transform="translate(174.25,128.7931)">
		<circle class="st8" cx="15.9" cy="10.7" r="3.1"/>
	</g>
	<g transform="translate(174.25,128.7931)">
		<path class="st8" d="M15.9,8.3c1.4,0,2.5,1.1,2.5,2.5l0,0c0,1.4-1.1,2.5-2.5,2.5s-2.5-1.1-2.5-2.5S14.6,8.3,15.9,8.3z M15.9,6.9
			c-2.1,0-3.8,1.7-3.8,3.8s1.7,3.8,3.8,3.8s3.8-1.7,3.8-3.8l0,0C19.7,8.6,18,6.9,15.9,6.9z"/>
	</g>
	<g transform="translate(174.25,128.7931)">
		<circle class="st8" cx="15.9" cy="10.7" r="3.1"/>
	</g>
	<g transform="translate(174.25,128.7931)">
		<path class="st8" d="M15.9,8.3c1.4,0,2.5,1.1,2.5,2.5l0,0c0,1.4-1.1,2.5-2.5,2.5s-2.5-1.1-2.5-2.5S14.6,8.3,15.9,8.3z M15.9,6.9
			c-2.1,0-3.8,1.7-3.8,3.8s1.7,3.8,3.8,3.8s3.8-1.7,3.8-3.8l0,0C19.7,8.6,18,6.9,15.9,6.9z"/>
	</g>
	<g transform="translate(174.25,128.7931)">
		<circle class="st8" cx="15.9" cy="10.7" r="3.1"/>
	</g>
	<g transform="translate(174.25,128.7931)">
		<path class="st8" d="M15.9,8.3c1.4,0,2.5,1.1,2.5,2.5l0,0c0,1.4-1.1,2.5-2.5,2.5s-2.5-1.1-2.5-2.5S14.6,8.3,15.9,8.3z M15.9,6.9
			c-2.1,0-3.8,1.7-3.8,3.8s1.7,3.8,3.8,3.8s3.8-1.7,3.8-3.8l0,0C19.7,8.6,18,6.9,15.9,6.9z"/>
	</g>
	<g transform="translate(174.25,128.7931)">
		<circle class="st8" cx="15.9" cy="10.7" r="3.1"/>
	</g>
	<g transform="translate(174.25,128.7931)">
		<path class="st8" d="M15.9,8.3c1.4,0,2.5,1.1,2.5,2.5l0,0c0,1.4-1.1,2.5-2.5,2.5s-2.5-1.1-2.5-2.5S14.6,8.3,15.9,8.3z M15.9,6.9
			c-2.1,0-3.8,1.7-3.8,3.8s1.7,3.8,3.8,3.8s3.8-1.7,3.8-3.8l0,0C19.7,8.6,18,6.9,15.9,6.9z"/>
	</g>
	<g transform="translate(174.25,128.7931)">
		<circle class="st8" cx="15.9" cy="10.7" r="3.1"/>
	</g>
	<g transform="translate(174.25,128.7931)">
		<path class="st8" d="M15.9,8.3c1.4,0,2.5,1.1,2.5,2.5l0,0c0,1.4-1.1,2.5-2.5,2.5s-2.5-1.1-2.5-2.5S14.6,8.3,15.9,8.3z M15.9,6.9
			c-2.1,0-3.8,1.7-3.8,3.8s1.7,3.8,3.8,3.8s3.8-1.7,3.8-3.8l0,0C19.7,8.6,18,6.9,15.9,6.9z"/>
	</g>
	<g transform="translate(174.25,128.7931)">
		<circle class="st8" cx="15.9" cy="10.7" r="3.1"/>
	</g>
	<g transform="translate(174.25,128.7931)">
		<path class="st8" d="M15.9,8.3c1.4,0,2.5,1.1,2.5,2.5l0,0c0,1.4-1.1,2.5-2.5,2.5s-2.5-1.1-2.5-2.5S14.6,8.3,15.9,8.3z M15.9,6.9
			c-2.1,0-3.8,1.7-3.8,3.8s1.7,3.8,3.8,3.8s3.8-1.7,3.8-3.8l0,0C19.7,8.6,18,6.9,15.9,6.9z"/>
	</g>
	<g transform="translate(174.25,128.7931)">
		<circle class="st8" cx="15.9" cy="10.7" r="3.1"/>
	</g>
	<g transform="translate(174.25,128.7931)">
		<path class="st8" d="M15.9,8.3c1.4,0,2.5,1.1,2.5,2.5l0,0c0,1.4-1.1,2.5-2.5,2.5s-2.5-1.1-2.5-2.5S14.6,8.3,15.9,8.3z M15.9,6.9
			c-2.1,0-3.8,1.7-3.8,3.8s1.7,3.8,3.8,3.8s3.8-1.7,3.8-3.8l0,0C19.7,8.6,18,6.9,15.9,6.9z"/>
	</g>
	<g transform="translate(174.25,128.7931)">
		<circle class="st8" cx="15.9" cy="10.7" r="3.1"/>
	</g>
	<g transform="translate(174.25,128.7931)">
		<path class="st8" d="M15.9,8.3c1.4,0,2.5,1.1,2.5,2.5l0,0c0,1.4-1.1,2.5-2.5,2.5s-2.5-1.1-2.5-2.5S14.6,8.3,15.9,8.3z M15.9,6.9
			c-2.1,0-3.8,1.7-3.8,3.8s1.7,3.8,3.8,3.8s3.8-1.7,3.8-3.8l0,0C19.7,8.6,18,6.9,15.9,6.9z"/>
	</g>
	<g transform="translate(174.25,118.4483)">
		<circle class="st8" cx="15.9" cy="10.7" r="3.1"/>
	</g>
	<g transform="translate(174.25,118.4483)">
		<path class="st8" d="M15.9,8.3c1.4,0,2.5,1.1,2.5,2.5l0,0c0,1.4-1.1,2.5-2.5,2.5s-2.5-1.1-2.5-2.5S14.6,8.3,15.9,8.3z M15.9,6.9
			c-2.1,0-3.8,1.7-3.8,3.8s1.7,3.8,3.8,3.8s3.8-1.7,3.8-3.8l0,0C19.7,8.6,18,6.9,15.9,6.9z"/>
	</g>
	<g transform="translate(174.25,118.4483)">
		<circle class="st8" cx="15.9" cy="10.7" r="3.1"/>
	</g>
	<g transform="translate(174.25,118.4483)">
		<path class="st8" d="M15.9,8.3c1.4,0,2.5,1.1,2.5,2.5l0,0c0,1.4-1.1,2.5-2.5,2.5s-2.5-1.1-2.5-2.5S14.6,8.3,15.9,8.3z M15.9,6.9
			c-2.1,0-3.8,1.7-3.8,3.8s1.7,3.8,3.8,3.8s3.8-1.7,3.8-3.8l0,0C19.7,8.6,18,6.9,15.9,6.9z"/>
	</g>
	<g transform="translate(174.25,118.4483)">
		<circle class="st8" cx="15.9" cy="10.7" r="3.1"/>
	</g>
	<g transform="translate(174.25,118.4483)">
		<path class="st8" d="M15.9,8.3c1.4,0,2.5,1.1,2.5,2.5l0,0c0,1.4-1.1,2.5-2.5,2.5s-2.5-1.1-2.5-2.5S14.6,8.3,15.9,8.3z M15.9,6.9
			c-2.1,0-3.8,1.7-3.8,3.8s1.7,3.8,3.8,3.8s3.8-1.7,3.8-3.8l0,0C19.7,8.6,18,6.9,15.9,6.9z"/>
	</g>
	<g transform="translate(174.25,118.4483)">
		<circle class="st8" cx="15.9" cy="10.7" r="3.1"/>
	</g>
	<g transform="translate(174.25,118.4483)">
		<path class="st8" d="M15.9,8.3c1.4,0,2.5,1.1,2.5,2.5l0,0c0,1.4-1.1,2.5-2.5,2.5s-2.5-1.1-2.5-2.5S14.6,8.3,15.9,8.3z M15.9,6.9
			c-2.1,0-3.8,1.7-3.8,3.8s1.7,3.8,3.8,3.8s3.8-1.7,3.8-3.8l0,0C19.7,8.6,18,6.9,15.9,6.9z"/>
	</g>
	<g transform="translate(174.25,118.4483)">
		<circle class="st8" cx="15.9" cy="10.7" r="3.1"/>
	</g>
	<g transform="translate(174.25,118.4483)">
		<path class="st8" d="M15.9,8.3c1.4,0,2.5,1.1,2.5,2.5l0,0c0,1.4-1.1,2.5-2.5,2.5s-2.5-1.1-2.5-2.5S14.6,8.3,15.9,8.3z M15.9,6.9
			c-2.1,0-3.8,1.7-3.8,3.8s1.7,3.8,3.8,3.8s3.8-1.7,3.8-3.8l0,0C19.7,8.6,18,6.9,15.9,6.9z"/>
	</g>
	<g transform="translate(174.25,118.4483)">
		<circle class="st8" cx="15.9" cy="10.7" r="3.1"/>
	</g>
	<g transform="translate(174.25,118.4483)">
		<path class="st8" d="M15.9,8.3c1.4,0,2.5,1.1,2.5,2.5l0,0c0,1.4-1.1,2.5-2.5,2.5s-2.5-1.1-2.5-2.5S14.6,8.3,15.9,8.3z M15.9,6.9
			c-2.1,0-3.8,1.7-3.8,3.8s1.7,3.8,3.8,3.8s3.8-1.7,3.8-3.8l0,0C19.7,8.6,18,6.9,15.9,6.9z"/>
	</g>
	<g transform="translate(174.25,118.4483)">
		<circle class="st8" cx="15.9" cy="10.7" r="3.1"/>
	</g>
	<g transform="translate(174.25,118.4483)">
		<path class="st8" d="M15.9,8.3c1.4,0,2.5,1.1,2.5,2.5l0,0c0,1.4-1.1,2.5-2.5,2.5s-2.5-1.1-2.5-2.5S14.6,8.3,15.9,8.3z M15.9,6.9
			c-2.1,0-3.8,1.7-3.8,3.8s1.7,3.8,3.8,3.8s3.8-1.7,3.8-3.8l0,0C19.7,8.6,18,6.9,15.9,6.9z"/>
	</g>
	<g transform="translate(174.25,118.4483)">
		<circle class="st8" cx="15.9" cy="10.7" r="3.1"/>
	</g>
	<g transform="translate(174.25,118.4483)">
		<path class="st8" d="M15.9,8.3c1.4,0,2.5,1.1,2.5,2.5l0,0c0,1.4-1.1,2.5-2.5,2.5s-2.5-1.1-2.5-2.5S14.6,8.3,15.9,8.3z M15.9,6.9
			c-2.1,0-3.8,1.7-3.8,3.8s1.7,3.8,3.8,3.8s3.8-1.7,3.8-3.8l0,0C19.7,8.6,18,6.9,15.9,6.9z"/>
	</g>
	<g transform="translate(174.25,118.4483)">
		<circle class="st8" cx="15.9" cy="10.7" r="3.1"/>
	</g>
	<g transform="translate(174.25,118.4483)">
		<path class="st8" d="M15.9,8.3c1.4,0,2.5,1.1,2.5,2.5l0,0c0,1.4-1.1,2.5-2.5,2.5s-2.5-1.1-2.5-2.5S14.6,8.3,15.9,8.3z M15.9,6.9
			c-2.1,0-3.8,1.7-3.8,3.8s1.7,3.8,3.8,3.8s3.8-1.7,3.8-3.8l0,0C19.7,8.6,18,6.9,15.9,6.9z"/>
	</g>
	<g transform="translate(174.25,108.1034)">
		<circle class="st8" cx="15.9" cy="10.7" r="3.1"/>
	</g>
	<g transform="translate(174.25,108.1034)">
		<path class="st8" d="M15.9,8.3c1.4,0,2.5,1.1,2.5,2.5l0,0c0,1.4-1.1,2.5-2.5,2.5s-2.5-1.1-2.5-2.5S14.6,8.3,15.9,8.3z M15.9,6.9
			c-2.1,0-3.8,1.7-3.8,3.8s1.7,3.8,3.8,3.8s3.8-1.7,3.8-3.8l0,0C19.7,8.6,18,6.9,15.9,6.9z"/>
	</g>
	<g transform="translate(174.25,108.1034)">
		<circle class="st8" cx="15.9" cy="10.7" r="3.1"/>
	</g>
	<g transform="translate(174.25,108.1034)">
		<path class="st8" d="M15.9,8.3c1.4,0,2.5,1.1,2.5,2.5l0,0c0,1.4-1.1,2.5-2.5,2.5s-2.5-1.1-2.5-2.5S14.6,8.3,15.9,8.3z M15.9,6.9
			c-2.1,0-3.8,1.7-3.8,3.8s1.7,3.8,3.8,3.8s3.8-1.7,3.8-3.8l0,0C19.7,8.6,18,6.9,15.9,6.9z"/>
	</g>
	<g transform="translate(174.25,108.1034)">
		<circle class="st8" cx="15.9" cy="10.7" r="3.1"/>
	</g>
	<g transform="translate(174.25,108.1034)">
		<path class="st8" d="M15.9,8.3c1.4,0,2.5,1.1,2.5,2.5l0,0c0,1.4-1.1,2.5-2.5,2.5s-2.5-1.1-2.5-2.5S14.6,8.3,15.9,8.3z M15.9,6.9
			c-2.1,0-3.8,1.7-3.8,3.8s1.7,3.8,3.8,3.8s3.8-1.7,3.8-3.8l0,0C19.7,8.6,18,6.9,15.9,6.9z"/>
	</g>
	<g transform="translate(174.25,108.1034)">
		<circle class="st8" cx="15.9" cy="10.7" r="3.1"/>
	</g>
	<g transform="translate(174.25,108.1034)">
		<path class="st8" d="M15.9,8.3c1.4,0,2.5,1.1,2.5,2.5l0,0c0,1.4-1.1,2.5-2.5,2.5s-2.5-1.1-2.5-2.5S14.6,8.3,15.9,8.3z M15.9,6.9
			c-2.1,0-3.8,1.7-3.8,3.8s1.7,3.8,3.8,3.8s3.8-1.7,3.8-3.8l0,0C19.7,8.6,18,6.9,15.9,6.9z"/>
	</g>
	<g transform="translate(174.25,108.1034)">
		<circle class="st8" cx="15.9" cy="10.7" r="3.1"/>
	</g>
	<g transform="translate(174.25,108.1034)">
		<path class="st8" d="M15.9,8.3c1.4,0,2.5,1.1,2.5,2.5l0,0c0,1.4-1.1,2.5-2.5,2.5s-2.5-1.1-2.5-2.5S14.6,8.3,15.9,8.3z M15.9,6.9
			c-2.1,0-3.8,1.7-3.8,3.8s1.7,3.8,3.8,3.8s3.8-1.7,3.8-3.8l0,0C19.7,8.6,18,6.9,15.9,6.9z"/>
	</g>
	<g transform="translate(174.25,97.7586)">
		<circle class="st8" cx="15.9" cy="10.7" r="3.1"/>
	</g>
	<g transform="translate(174.25,97.7586)">
		<path class="st8" d="M15.9,8.3c1.4,0,2.5,1.1,2.5,2.5l0,0c0,1.4-1.1,2.5-2.5,2.5s-2.5-1.1-2.5-2.5S14.6,8.3,15.9,8.3z M15.9,6.9
			c-2.1,0-3.8,1.7-3.8,3.8s1.7,3.8,3.8,3.8s3.8-1.7,3.8-3.8l0,0C19.7,8.6,18,6.9,15.9,6.9z"/>
	</g>
	<g transform="translate(174.25,97.7586)">
		<circle class="st8" cx="15.9" cy="10.7" r="3.1"/>
	</g>
	<g transform="translate(174.25,97.7586)">
		<path class="st8" d="M15.9,8.3c1.4,0,2.5,1.1,2.5,2.5l0,0c0,1.4-1.1,2.5-2.5,2.5s-2.5-1.1-2.5-2.5S14.6,8.3,15.9,8.3z M15.9,6.9
			c-2.1,0-3.8,1.7-3.8,3.8s1.7,3.8,3.8,3.8s3.8-1.7,3.8-3.8l0,0C19.7,8.6,18,6.9,15.9,6.9z"/>
	</g>
	<g transform="translate(174.25,97.7586)">
		<circle class="st8" cx="15.9" cy="10.7" r="3.1"/>
	</g>
	<g transform="translate(174.25,97.7586)">
		<path class="st8" d="M15.9,8.3c1.4,0,2.5,1.1,2.5,2.5l0,0c0,1.4-1.1,2.5-2.5,2.5s-2.5-1.1-2.5-2.5S14.6,8.3,15.9,8.3z M15.9,6.9
			c-2.1,0-3.8,1.7-3.8,3.8s1.7,3.8,3.8,3.8s3.8-1.7,3.8-3.8l0,0C19.7,8.6,18,6.9,15.9,6.9z"/>
	</g>
	<g transform="translate(174.25,97.7586)">
		<circle class="st8" cx="15.9" cy="10.7" r="3.1"/>
	</g>
	<g transform="translate(174.25,97.7586)">
		<path class="st8" d="M15.9,8.3c1.4,0,2.5,1.1,2.5,2.5l0,0c0,1.4-1.1,2.5-2.5,2.5s-2.5-1.1-2.5-2.5S14.6,8.3,15.9,8.3z M15.9,6.9
			c-2.1,0-3.8,1.7-3.8,3.8s1.7,3.8,3.8,3.8s3.8-1.7,3.8-3.8l0,0C19.7,8.6,18,6.9,15.9,6.9z"/>
	</g>
	<g transform="translate(174.25,97.7586)">
		<circle class="st8" cx="15.9" cy="10.7" r="3.1"/>
	</g>
	<g transform="translate(174.25,97.7586)">
		<path class="st8" d="M15.9,8.3c1.4,0,2.5,1.1,2.5,2.5l0,0c0,1.4-1.1,2.5-2.5,2.5s-2.5-1.1-2.5-2.5S14.6,8.3,15.9,8.3z M15.9,6.9
			c-2.1,0-3.8,1.7-3.8,3.8s1.7,3.8,3.8,3.8s3.8-1.7,3.8-3.8l0,0C19.7,8.6,18,6.9,15.9,6.9z"/>
	</g>
	<g transform="translate(174.25,97.7586)">
		<circle class="st8" cx="15.9" cy="10.7" r="3.1"/>
	</g>
	<g transform="translate(174.25,97.7586)">
		<path class="st8" d="M15.9,8.3c1.4,0,2.5,1.1,2.5,2.5l0,0c0,1.4-1.1,2.5-2.5,2.5s-2.5-1.1-2.5-2.5S14.6,8.3,15.9,8.3z M15.9,6.9
			c-2.1,0-3.8,1.7-3.8,3.8s1.7,3.8,3.8,3.8s3.8-1.7,3.8-3.8l0,0C19.7,8.6,18,6.9,15.9,6.9z"/>
	</g>
	<g transform="translate(174.25,97.7586)">
		<circle class="st8" cx="15.9" cy="10.7" r="3.1"/>
	</g>
	<g transform="translate(174.25,97.7586)">
		<path class="st8" d="M15.9,8.3c1.4,0,2.5,1.1,2.5,2.5l0,0c0,1.4-1.1,2.5-2.5,2.5s-2.5-1.1-2.5-2.5S14.6,8.3,15.9,8.3z M15.9,6.9
			c-2.1,0-3.8,1.7-3.8,3.8s1.7,3.8,3.8,3.8s3.8-1.7,3.8-3.8l0,0C19.7,8.6,18,6.9,15.9,6.9z"/>
	</g>
	<g transform="translate(174.25,97.7586)">
		<circle class="st8" cx="15.9" cy="10.7" r="3.1"/>
	</g>
	<g transform="translate(174.25,97.7586)">
		<path class="st8" d="M15.9,8.3c1.4,0,2.5,1.1,2.5,2.5l0,0c0,1.4-1.1,2.5-2.5,2.5s-2.5-1.1-2.5-2.5S14.6,8.3,15.9,8.3z M15.9,6.9
			c-2.1,0-3.8,1.7-3.8,3.8s1.7,3.8,3.8,3.8s3.8-1.7,3.8-3.8l0,0C19.7,8.6,18,6.9,15.9,6.9z"/>
	</g>
	<g transform="translate(174.25,97.7586)">
		<circle class="st8" cx="15.9" cy="10.7" r="3.1"/>
	</g>
	<g transform="translate(174.25,97.7586)">
		<path class="st8" d="M15.9,8.3c1.4,0,2.5,1.1,2.5,2.5l0,0c0,1.4-1.1,2.5-2.5,2.5s-2.5-1.1-2.5-2.5S14.6,8.3,15.9,8.3z M15.9,6.9
			c-2.1,0-3.8,1.7-3.8,3.8s1.7,3.8,3.8,3.8s3.8-1.7,3.8-3.8l0,0C19.7,8.6,18,6.9,15.9,6.9z"/>
	</g>
	<g transform="translate(174.25,97.7586)">
		<circle class="st8" cx="15.9" cy="10.7" r="3.1"/>
	</g>
	<g transform="translate(174.25,97.7586)">
		<path class="st8" d="M15.9,8.3c1.4,0,2.5,1.1,2.5,2.5l0,0c0,1.4-1.1,2.5-2.5,2.5s-2.5-1.1-2.5-2.5S14.6,8.3,15.9,8.3z M15.9,6.9
			c-2.1,0-3.8,1.7-3.8,3.8s1.7,3.8,3.8,3.8s3.8-1.7,3.8-3.8l0,0C19.7,8.6,18,6.9,15.9,6.9z"/>
	</g>
	<g transform="translate(174.25,87.4138)">
		<circle class="st8" cx="15.9" cy="10.7" r="3.1"/>
	</g>
	<g transform="translate(174.25,87.4138)">
		<path class="st8" d="M15.9,8.3c1.4,0,2.5,1.1,2.5,2.5l0,0c0,1.4-1.1,2.5-2.5,2.5s-2.5-1.1-2.5-2.5S14.6,8.3,15.9,8.3z M15.9,6.9
			c-2.1,0-3.8,1.7-3.8,3.8s1.7,3.8,3.8,3.8s3.8-1.7,3.8-3.8l0,0C19.7,8.6,18,6.9,15.9,6.9z"/>
	</g>
	<g transform="translate(174.25,87.4138)">
		<circle class="st8" cx="15.9" cy="10.7" r="3.1"/>
	</g>
	<g transform="translate(174.25,87.4138)">
		<path class="st8" d="M15.9,8.3c1.4,0,2.5,1.1,2.5,2.5l0,0c0,1.4-1.1,2.5-2.5,2.5s-2.5-1.1-2.5-2.5S14.6,8.3,15.9,8.3z M15.9,6.9
			c-2.1,0-3.8,1.7-3.8,3.8s1.7,3.8,3.8,3.8s3.8-1.7,3.8-3.8l0,0C19.7,8.6,18,6.9,15.9,6.9z"/>
	</g>
	<g transform="translate(174.25,87.4138)">
		<circle class="st8" cx="15.9" cy="10.7" r="3.1"/>
	</g>
	<g transform="translate(174.25,87.4138)">
		<path class="st8" d="M15.9,8.3c1.4,0,2.5,1.1,2.5,2.5l0,0c0,1.4-1.1,2.5-2.5,2.5s-2.5-1.1-2.5-2.5S14.6,8.3,15.9,8.3z M15.9,6.9
			c-2.1,0-3.8,1.7-3.8,3.8s1.7,3.8,3.8,3.8s3.8-1.7,3.8-3.8l0,0C19.7,8.6,18,6.9,15.9,6.9z"/>
	</g>
	<g transform="translate(174.25,87.4138)">
		<circle class="st8" cx="15.9" cy="10.7" r="3.1"/>
	</g>
	<g transform="translate(174.25,87.4138)">
		<path class="st8" d="M15.9,8.3c1.4,0,2.5,1.1,2.5,2.5l0,0c0,1.4-1.1,2.5-2.5,2.5s-2.5-1.1-2.5-2.5S14.6,8.3,15.9,8.3z M15.9,6.9
			c-2.1,0-3.8,1.7-3.8,3.8s1.7,3.8,3.8,3.8s3.8-1.7,3.8-3.8l0,0C19.7,8.6,18,6.9,15.9,6.9z"/>
	</g>
	<g transform="translate(174.25,87.4138)">
		<circle class="st8" cx="15.9" cy="10.7" r="3.1"/>
	</g>
	<g transform="translate(174.25,87.4138)">
		<path class="st8" d="M15.9,8.3c1.4,0,2.5,1.1,2.5,2.5l0,0c0,1.4-1.1,2.5-2.5,2.5s-2.5-1.1-2.5-2.5S14.6,8.3,15.9,8.3z M15.9,6.9
			c-2.1,0-3.8,1.7-3.8,3.8s1.7,3.8,3.8,3.8s3.8-1.7,3.8-3.8l0,0C19.7,8.6,18,6.9,15.9,6.9z"/>
	</g>
	<g transform="translate(174.25,87.4138)">
		<circle class="st8" cx="15.9" cy="10.7" r="3.1"/>
	</g>
	<g transform="translate(174.25,87.4138)">
		<path class="st8" d="M15.9,8.3c1.4,0,2.5,1.1,2.5,2.5l0,0c0,1.4-1.1,2.5-2.5,2.5s-2.5-1.1-2.5-2.5S14.6,8.3,15.9,8.3z M15.9,6.9
			c-2.1,0-3.8,1.7-3.8,3.8s1.7,3.8,3.8,3.8s3.8-1.7,3.8-3.8l0,0C19.7,8.6,18,6.9,15.9,6.9z"/>
	</g>
	<g transform="translate(174.25,77.069)">
		<circle class="st8" cx="15.9" cy="10.7" r="3.1"/>
	</g>
	<g transform="translate(174.25,77.069)">
		<path class="st8" d="M15.9,8.3c1.4,0,2.5,1.1,2.5,2.5l0,0c0,1.4-1.1,2.5-2.5,2.5s-2.5-1.1-2.5-2.5S14.6,8.3,15.9,8.3z M15.9,6.9
			c-2.1,0-3.8,1.7-3.8,3.8s1.7,3.8,3.8,3.8s3.8-1.7,3.8-3.8l0,0C19.7,8.6,18,6.9,15.9,6.9z"/>
	</g>
	<g transform="translate(174.25,77.069)">
		<circle class="st8" cx="15.9" cy="10.7" r="3.1"/>
	</g>
	<g transform="translate(174.25,77.069)">
		<path class="st8" d="M15.9,8.3c1.4,0,2.5,1.1,2.5,2.5l0,0c0,1.4-1.1,2.5-2.5,2.5s-2.5-1.1-2.5-2.5S14.6,8.3,15.9,8.3z M15.9,6.9
			c-2.1,0-3.8,1.7-3.8,3.8s1.7,3.8,3.8,3.8s3.8-1.7,3.8-3.8l0,0C19.7,8.6,18,6.9,15.9,6.9z"/>
	</g>
	<g transform="translate(174.25,56.3793)">
		<circle class="st8" cx="15.9" cy="10.7" r="3.1"/>
	</g>
	<g transform="translate(174.25,56.3793)">
		<path class="st8" d="M15.9,8.3c1.4,0,2.5,1.1,2.5,2.5l0,0c0,1.4-1.1,2.5-2.5,2.5s-2.5-1.1-2.5-2.5S14.6,8.3,15.9,8.3z M15.9,6.9
			c-2.1,0-3.8,1.7-3.8,3.8s1.7,3.8,3.8,3.8s3.8-1.7,3.8-3.8l0,0C19.7,8.6,18,6.9,15.9,6.9z"/>
	</g>
	<g transform="translate(174.25,56.3793)">
		<circle class="st8" cx="15.9" cy="10.7" r="3.1"/>
	</g>
	<g transform="translate(174.25,56.3793)">
		<path class="st8" d="M15.9,8.3c1.4,0,2.5,1.1,2.5,2.5l0,0c0,1.4-1.1,2.5-2.5,2.5s-2.5-1.1-2.5-2.5S14.6,8.3,15.9,8.3z M15.9,6.9
			c-2.1,0-3.8,1.7-3.8,3.8s1.7,3.8,3.8,3.8s3.8-1.7,3.8-3.8l0,0C19.7,8.6,18,6.9,15.9,6.9z"/>
	</g>
	<g transform="translate(174.25,56.3793)">
		<circle class="st8" cx="15.9" cy="10.7" r="3.1"/>
	</g>
	<g transform="translate(174.25,56.3793)">
		<path class="st8" d="M15.9,8.3c1.4,0,2.5,1.1,2.5,2.5l0,0c0,1.4-1.1,2.5-2.5,2.5s-2.5-1.1-2.5-2.5S14.6,8.3,15.9,8.3z M15.9,6.9
			c-2.1,0-3.8,1.7-3.8,3.8s1.7,3.8,3.8,3.8s3.8-1.7,3.8-3.8l0,0C19.7,8.6,18,6.9,15.9,6.9z"/>
	</g>
	<g transform="translate(174.25,56.3793)">
		<circle class="st8" cx="15.9" cy="10.7" r="3.1"/>
	</g>
	<g transform="translate(174.25,56.3793)">
		<path class="st8" d="M15.9,8.3c1.4,0,2.5,1.1,2.5,2.5l0,0c0,1.4-1.1,2.5-2.5,2.5s-2.5-1.1-2.5-2.5S14.6,8.3,15.9,8.3z M15.9,6.9
			c-2.1,0-3.8,1.7-3.8,3.8s1.7,3.8,3.8,3.8s3.8-1.7,3.8-3.8l0,0C19.7,8.6,18,6.9,15.9,6.9z"/>
	</g>
	<g transform="translate(174.25,56.3793)">
		<circle class="st8" cx="15.9" cy="10.7" r="3.1"/>
	</g>
	<g transform="translate(174.25,56.3793)">
		<path class="st8" d="M15.9,8.3c1.4,0,2.5,1.1,2.5,2.5l0,0c0,1.4-1.1,2.5-2.5,2.5s-2.5-1.1-2.5-2.5S14.6,8.3,15.9,8.3z M15.9,6.9
			c-2.1,0-3.8,1.7-3.8,3.8s1.7,3.8,3.8,3.8s3.8-1.7,3.8-3.8l0,0C19.7,8.6,18,6.9,15.9,6.9z"/>
	</g>
	<g transform="translate(174.25,56.3793)">
		<circle class="st8" cx="15.9" cy="10.7" r="3.1"/>
	</g>
	<g transform="translate(174.25,56.3793)">
		<path class="st8" d="M15.9,8.3c1.4,0,2.5,1.1,2.5,2.5l0,0c0,1.4-1.1,2.5-2.5,2.5s-2.5-1.1-2.5-2.5S14.6,8.3,15.9,8.3z M15.9,6.9
			c-2.1,0-3.8,1.7-3.8,3.8s1.7,3.8,3.8,3.8s3.8-1.7,3.8-3.8l0,0C19.7,8.6,18,6.9,15.9,6.9z"/>
	</g>
	<g transform="translate(174.25,46.0345)">
		<circle class="st8" cx="15.9" cy="10.7" r="3.1"/>
	</g>
	<g transform="translate(174.25,46.0345)">
		<path class="st8" d="M15.9,8.3c1.4,0,2.5,1.1,2.5,2.5l0,0c0,1.4-1.1,2.5-2.5,2.5s-2.5-1.1-2.5-2.5S14.6,8.3,15.9,8.3z M15.9,6.9
			c-2.1,0-3.8,1.7-3.8,3.8s1.7,3.8,3.8,3.8s3.8-1.7,3.8-3.8l0,0C19.7,8.6,18,6.9,15.9,6.9z"/>
	</g>
	<g transform="translate(174.25,46.0345)">
		<circle class="st8" cx="15.9" cy="10.7" r="3.1"/>
	</g>
	<g transform="translate(174.25,46.0345)">
		<path class="st8" d="M15.9,8.3c1.4,0,2.5,1.1,2.5,2.5l0,0c0,1.4-1.1,2.5-2.5,2.5s-2.5-1.1-2.5-2.5S14.6,8.3,15.9,8.3z M15.9,6.9
			c-2.1,0-3.8,1.7-3.8,3.8s1.7,3.8,3.8,3.8s3.8-1.7,3.8-3.8l0,0C19.7,8.6,18,6.9,15.9,6.9z"/>
	</g>
	<g transform="translate(174.25,35.6897)">
		<circle class="st8" cx="15.9" cy="10.7" r="3.1"/>
	</g>
	<g transform="translate(174.25,35.6897)">
		<path class="st8" d="M15.9,8.3c1.4,0,2.5,1.1,2.5,2.5l0,0c0,1.4-1.1,2.5-2.5,2.5s-2.5-1.1-2.5-2.5S14.6,8.3,15.9,8.3z M15.9,6.9
			c-2.1,0-3.8,1.7-3.8,3.8s1.7,3.8,3.8,3.8s3.8-1.7,3.8-3.8l0,0C19.7,8.6,18,6.9,15.9,6.9z"/>
	</g>
	<g transform="translate(174.25,15)">
		<circle class="st8" cx="15.9" cy="10.7" r="3.1"/>
	</g>
	<g transform="translate(174.25,15)">
		<path class="st8" d="M15.9,8.3c1.4,0,2.5,1.1,2.5,2.5l0,0c0,1.4-1.1,2.5-2.5,2.5s-2.5-1.1-2.5-2.5S14.6,8.3,15.9,8.3z M15.9,6.9
			c-2.1,0-3.8,1.7-3.8,3.8s1.7,3.8,3.8,3.8s3.8-1.7,3.8-3.8l0,0C19.7,8.6,18,6.9,15.9,6.9z"/>
	</g>
	<g transform="translate(174.25,15)">
		<circle class="st8" cx="15.9" cy="10.7" r="3.1"/>
	</g>
	<g transform="translate(174.25,15)">
		<path class="st8" d="M15.9,8.3c1.4,0,2.5,1.1,2.5,2.5l0,0c0,1.4-1.1,2.5-2.5,2.5s-2.5-1.1-2.5-2.5S14.6,8.3,15.9,8.3z M15.9,6.9
			c-2.1,0-3.8,1.7-3.8,3.8s1.7,3.8,3.8,3.8s3.8-1.7,3.8-3.8l0,0C19.7,8.6,18,6.9,15.9,6.9z"/>
	</g>
	<g transform="translate(174.25,15)">
		<circle class="st8" cx="15.9" cy="10.7" r="3.1"/>
	</g>
	<g transform="translate(174.25,15)">
		<path class="st8" d="M15.9,8.3c1.4,0,2.5,1.1,2.5,2.5l0,0c0,1.4-1.1,2.5-2.5,2.5s-2.5-1.1-2.5-2.5S14.6,8.3,15.9,8.3z M15.9,6.9
			c-2.1,0-3.8,1.7-3.8,3.8s1.7,3.8,3.8,3.8s3.8-1.7,3.8-3.8l0,0C19.7,8.6,18,6.9,15.9,6.9z"/>
	</g>
	<g transform="translate(324.75,221.8965)">
		<circle class="st8" cx="15.9" cy="10.7" r="3.1"/>
	</g>
	<g transform="translate(324.75,221.8965)">
		<path class="st8" d="M15.9,8.3c1.4,0,2.5,1.1,2.5,2.5l0,0c0,1.4-1.1,2.5-2.5,2.5s-2.5-1.1-2.5-2.5S14.6,8.3,15.9,8.3z M15.9,6.9
			c-2.1,0-3.8,1.7-3.8,3.8s1.7,3.8,3.8,3.8s3.8-1.7,3.8-3.8l0,0C19.7,8.6,18,6.9,15.9,6.9z"/>
	</g>
	<g transform="translate(324.75,221.8965)">
		<circle class="st8" cx="15.9" cy="10.7" r="3.1"/>
	</g>
	<g transform="translate(324.75,221.8965)">
		<path class="st8" d="M15.9,8.3c1.4,0,2.5,1.1,2.5,2.5l0,0c0,1.4-1.1,2.5-2.5,2.5s-2.5-1.1-2.5-2.5S14.6,8.3,15.9,8.3z M15.9,6.9
			c-2.1,0-3.8,1.7-3.8,3.8s1.7,3.8,3.8,3.8s3.8-1.7,3.8-3.8l0,0C19.7,8.6,18,6.9,15.9,6.9z"/>
	</g>
	<g transform="translate(324.75,221.8965)">
		<circle class="st8" cx="15.9" cy="10.7" r="3.1"/>
	</g>
	<g transform="translate(324.75,221.8965)">
		<path class="st8" d="M15.9,8.3c1.4,0,2.5,1.1,2.5,2.5l0,0c0,1.4-1.1,2.5-2.5,2.5s-2.5-1.1-2.5-2.5S14.6,8.3,15.9,8.3z M15.9,6.9
			c-2.1,0-3.8,1.7-3.8,3.8s1.7,3.8,3.8,3.8s3.8-1.7,3.8-3.8l0,0C19.7,8.6,18,6.9,15.9,6.9z"/>
	</g>
	<g transform="translate(324.75,221.8965)">
		<circle class="st8" cx="15.9" cy="10.7" r="3.1"/>
	</g>
	<g transform="translate(324.75,221.8965)">
		<path class="st8" d="M15.9,8.3c1.4,0,2.5,1.1,2.5,2.5l0,0c0,1.4-1.1,2.5-2.5,2.5s-2.5-1.1-2.5-2.5S14.6,8.3,15.9,8.3z M15.9,6.9
			c-2.1,0-3.8,1.7-3.8,3.8s1.7,3.8,3.8,3.8s3.8-1.7,3.8-3.8l0,0C19.7,8.6,18,6.9,15.9,6.9z"/>
	</g>
	<g transform="translate(324.75,221.8965)">
		<circle class="st8" cx="15.9" cy="10.7" r="3.1"/>
	</g>
	<g transform="translate(324.75,221.8965)">
		<path class="st8" d="M15.9,8.3c1.4,0,2.5,1.1,2.5,2.5l0,0c0,1.4-1.1,2.5-2.5,2.5s-2.5-1.1-2.5-2.5S14.6,8.3,15.9,8.3z M15.9,6.9
			c-2.1,0-3.8,1.7-3.8,3.8s1.7,3.8,3.8,3.8s3.8-1.7,3.8-3.8l0,0C19.7,8.6,18,6.9,15.9,6.9z"/>
	</g>
	<g transform="translate(324.75,221.8965)">
		<circle class="st8" cx="15.9" cy="10.7" r="3.1"/>
	</g>
	<g transform="translate(324.75,221.8965)">
		<path class="st8" d="M15.9,8.3c1.4,0,2.5,1.1,2.5,2.5l0,0c0,1.4-1.1,2.5-2.5,2.5s-2.5-1.1-2.5-2.5S14.6,8.3,15.9,8.3z M15.9,6.9
			c-2.1,0-3.8,1.7-3.8,3.8s1.7,3.8,3.8,3.8s3.8-1.7,3.8-3.8l0,0C19.7,8.6,18,6.9,15.9,6.9z"/>
	</g>
	<g transform="translate(324.75,221.8965)">
		<circle class="st8" cx="15.9" cy="10.7" r="3.1"/>
	</g>
	<g transform="translate(324.75,221.8965)">
		<path class="st8" d="M15.9,8.3c1.4,0,2.5,1.1,2.5,2.5l0,0c0,1.4-1.1,2.5-2.5,2.5s-2.5-1.1-2.5-2.5S14.6,8.3,15.9,8.3z M15.9,6.9
			c-2.1,0-3.8,1.7-3.8,3.8s1.7,3.8,3.8,3.8s3.8-1.7,3.8-3.8l0,0C19.7,8.6,18,6.9,15.9,6.9z"/>
	</g>
	<g transform="translate(324.75,221.8965)">
		<circle class="st8" cx="15.9" cy="10.7" r="3.1"/>
	</g>
	<g transform="translate(324.75,221.8965)">
		<path class="st8" d="M15.9,8.3c1.4,0,2.5,1.1,2.5,2.5l0,0c0,1.4-1.1,2.5-2.5,2.5s-2.5-1.1-2.5-2.5S14.6,8.3,15.9,8.3z M15.9,6.9
			c-2.1,0-3.8,1.7-3.8,3.8s1.7,3.8,3.8,3.8s3.8-1.7,3.8-3.8l0,0C19.7,8.6,18,6.9,15.9,6.9z"/>
	</g>
	<g transform="translate(324.75,221.8965)">
		<circle class="st8" cx="15.9" cy="10.7" r="3.1"/>
	</g>
	<g transform="translate(324.75,221.8965)">
		<path class="st8" d="M15.9,8.3c1.4,0,2.5,1.1,2.5,2.5l0,0c0,1.4-1.1,2.5-2.5,2.5s-2.5-1.1-2.5-2.5S14.6,8.3,15.9,8.3z M15.9,6.9
			c-2.1,0-3.8,1.7-3.8,3.8s1.7,3.8,3.8,3.8s3.8-1.7,3.8-3.8l0,0C19.7,8.6,18,6.9,15.9,6.9z"/>
	</g>
	<g transform="translate(324.75,221.8965)">
		<circle class="st8" cx="15.9" cy="10.7" r="3.1"/>
	</g>
	<g transform="translate(324.75,221.8965)">
		<path class="st8" d="M15.9,8.3c1.4,0,2.5,1.1,2.5,2.5l0,0c0,1.4-1.1,2.5-2.5,2.5s-2.5-1.1-2.5-2.5S14.6,8.3,15.9,8.3z M15.9,6.9
			c-2.1,0-3.8,1.7-3.8,3.8s1.7,3.8,3.8,3.8s3.8-1.7,3.8-3.8l0,0C19.7,8.6,18,6.9,15.9,6.9z"/>
	</g>
	<g transform="translate(324.75,221.8965)">
		<circle class="st8" cx="15.9" cy="10.7" r="3.1"/>
	</g>
	<g transform="translate(324.75,221.8965)">
		<path class="st8" d="M15.9,8.3c1.4,0,2.5,1.1,2.5,2.5l0,0c0,1.4-1.1,2.5-2.5,2.5s-2.5-1.1-2.5-2.5S14.6,8.3,15.9,8.3z M15.9,6.9
			c-2.1,0-3.8,1.7-3.8,3.8s1.7,3.8,3.8,3.8s3.8-1.7,3.8-3.8l0,0C19.7,8.6,18,6.9,15.9,6.9z"/>
	</g>
	<g transform="translate(324.75,221.8965)">
		<circle class="st8" cx="15.9" cy="10.7" r="3.1"/>
	</g>
	<g transform="translate(324.75,221.8965)">
		<path class="st8" d="M15.9,8.3c1.4,0,2.5,1.1,2.5,2.5l0,0c0,1.4-1.1,2.5-2.5,2.5s-2.5-1.1-2.5-2.5S14.6,8.3,15.9,8.3z M15.9,6.9
			c-2.1,0-3.8,1.7-3.8,3.8s1.7,3.8,3.8,3.8s3.8-1.7,3.8-3.8l0,0C19.7,8.6,18,6.9,15.9,6.9z"/>
	</g>
	<g transform="translate(324.75,221.8965)">
		<circle class="st8" cx="15.9" cy="10.7" r="3.1"/>
	</g>
	<g transform="translate(324.75,221.8965)">
		<path class="st8" d="M15.9,8.3c1.4,0,2.5,1.1,2.5,2.5l0,0c0,1.4-1.1,2.5-2.5,2.5s-2.5-1.1-2.5-2.5S14.6,8.3,15.9,8.3z M15.9,6.9
			c-2.1,0-3.8,1.7-3.8,3.8s1.7,3.8,3.8,3.8s3.8-1.7,3.8-3.8l0,0C19.7,8.6,18,6.9,15.9,6.9z"/>
	</g>
	<g transform="translate(324.75,221.8965)">
		<circle class="st8" cx="15.9" cy="10.7" r="3.1"/>
	</g>
	<g transform="translate(324.75,221.8965)">
		<path class="st8" d="M15.9,8.3c1.4,0,2.5,1.1,2.5,2.5l0,0c0,1.4-1.1,2.5-2.5,2.5s-2.5-1.1-2.5-2.5S14.6,8.3,15.9,8.3z M15.9,6.9
			c-2.1,0-3.8,1.7-3.8,3.8s1.7,3.8,3.8,3.8s3.8-1.7,3.8-3.8l0,0C19.7,8.6,18,6.9,15.9,6.9z"/>
	</g>
	<g transform="translate(324.75,221.8965)">
		<circle class="st8" cx="15.9" cy="10.7" r="3.1"/>
	</g>
	<g transform="translate(324.75,221.8965)">
		<path class="st8" d="M15.9,8.3c1.4,0,2.5,1.1,2.5,2.5l0,0c0,1.4-1.1,2.5-2.5,2.5s-2.5-1.1-2.5-2.5S14.6,8.3,15.9,8.3z M15.9,6.9
			c-2.1,0-3.8,1.7-3.8,3.8s1.7,3.8,3.8,3.8s3.8-1.7,3.8-3.8l0,0C19.7,8.6,18,6.9,15.9,6.9z"/>
	</g>
	<g transform="translate(324.75,211.5517)">
		<circle class="st8" cx="15.9" cy="10.7" r="3.1"/>
	</g>
	<g transform="translate(324.75,211.5517)">
		<path class="st8" d="M15.9,8.3c1.4,0,2.5,1.1,2.5,2.5l0,0c0,1.4-1.1,2.5-2.5,2.5s-2.5-1.1-2.5-2.5S14.6,8.3,15.9,8.3z M15.9,6.9
			c-2.1,0-3.8,1.7-3.8,3.8s1.7,3.8,3.8,3.8s3.8-1.7,3.8-3.8l0,0C19.7,8.6,18,6.9,15.9,6.9z"/>
	</g>
	<g transform="translate(324.75,211.5517)">
		<circle class="st8" cx="15.9" cy="10.7" r="3.1"/>
	</g>
	<g transform="translate(324.75,211.5517)">
		<path class="st8" d="M15.9,8.3c1.4,0,2.5,1.1,2.5,2.5l0,0c0,1.4-1.1,2.5-2.5,2.5s-2.5-1.1-2.5-2.5S14.6,8.3,15.9,8.3z M15.9,6.9
			c-2.1,0-3.8,1.7-3.8,3.8s1.7,3.8,3.8,3.8s3.8-1.7,3.8-3.8l0,0C19.7,8.6,18,6.9,15.9,6.9z"/>
	</g>
	<g transform="translate(324.75,211.5517)">
		<circle class="st8" cx="15.9" cy="10.7" r="3.1"/>
	</g>
	<g transform="translate(324.75,211.5517)">
		<path class="st8" d="M15.9,8.3c1.4,0,2.5,1.1,2.5,2.5l0,0c0,1.4-1.1,2.5-2.5,2.5s-2.5-1.1-2.5-2.5S14.6,8.3,15.9,8.3z M15.9,6.9
			c-2.1,0-3.8,1.7-3.8,3.8s1.7,3.8,3.8,3.8s3.8-1.7,3.8-3.8l0,0C19.7,8.6,18,6.9,15.9,6.9z"/>
	</g>
	<g transform="translate(324.75,211.5517)">
		<circle class="st8" cx="15.9" cy="10.7" r="3.1"/>
	</g>
	<g transform="translate(324.75,211.5517)">
		<path class="st8" d="M15.9,8.3c1.4,0,2.5,1.1,2.5,2.5l0,0c0,1.4-1.1,2.5-2.5,2.5s-2.5-1.1-2.5-2.5S14.6,8.3,15.9,8.3z M15.9,6.9
			c-2.1,0-3.8,1.7-3.8,3.8s1.7,3.8,3.8,3.8s3.8-1.7,3.8-3.8l0,0C19.7,8.6,18,6.9,15.9,6.9z"/>
	</g>
	<g transform="translate(324.75,211.5517)">
		<circle class="st8" cx="15.9" cy="10.7" r="3.1"/>
	</g>
	<g transform="translate(324.75,211.5517)">
		<path class="st8" d="M15.9,8.3c1.4,0,2.5,1.1,2.5,2.5l0,0c0,1.4-1.1,2.5-2.5,2.5s-2.5-1.1-2.5-2.5S14.6,8.3,15.9,8.3z M15.9,6.9
			c-2.1,0-3.8,1.7-3.8,3.8s1.7,3.8,3.8,3.8s3.8-1.7,3.8-3.8l0,0C19.7,8.6,18,6.9,15.9,6.9z"/>
	</g>
	<g transform="translate(324.75,211.5517)">
		<circle class="st8" cx="15.9" cy="10.7" r="3.1"/>
	</g>
	<g transform="translate(324.75,211.5517)">
		<path class="st8" d="M15.9,8.3c1.4,0,2.5,1.1,2.5,2.5l0,0c0,1.4-1.1,2.5-2.5,2.5s-2.5-1.1-2.5-2.5S14.6,8.3,15.9,8.3z M15.9,6.9
			c-2.1,0-3.8,1.7-3.8,3.8s1.7,3.8,3.8,3.8s3.8-1.7,3.8-3.8l0,0C19.7,8.6,18,6.9,15.9,6.9z"/>
	</g>
	<g transform="translate(324.75,211.5517)">
		<circle class="st8" cx="15.9" cy="10.7" r="3.1"/>
	</g>
	<g transform="translate(324.75,211.5517)">
		<path class="st8" d="M15.9,8.3c1.4,0,2.5,1.1,2.5,2.5l0,0c0,1.4-1.1,2.5-2.5,2.5s-2.5-1.1-2.5-2.5S14.6,8.3,15.9,8.3z M15.9,6.9
			c-2.1,0-3.8,1.7-3.8,3.8s1.7,3.8,3.8,3.8s3.8-1.7,3.8-3.8l0,0C19.7,8.6,18,6.9,15.9,6.9z"/>
	</g>
	<g transform="translate(324.75,211.5517)">
		<circle class="st8" cx="15.9" cy="10.7" r="3.1"/>
	</g>
	<g transform="translate(324.75,211.5517)">
		<path class="st8" d="M15.9,8.3c1.4,0,2.5,1.1,2.5,2.5l0,0c0,1.4-1.1,2.5-2.5,2.5s-2.5-1.1-2.5-2.5S14.6,8.3,15.9,8.3z M15.9,6.9
			c-2.1,0-3.8,1.7-3.8,3.8s1.7,3.8,3.8,3.8s3.8-1.7,3.8-3.8l0,0C19.7,8.6,18,6.9,15.9,6.9z"/>
	</g>
	<g transform="translate(324.75,211.5517)">
		<circle class="st8" cx="15.9" cy="10.7" r="3.1"/>
	</g>
	<g transform="translate(324.75,211.5517)">
		<path class="st8" d="M15.9,8.3c1.4,0,2.5,1.1,2.5,2.5l0,0c0,1.4-1.1,2.5-2.5,2.5s-2.5-1.1-2.5-2.5S14.6,8.3,15.9,8.3z M15.9,6.9
			c-2.1,0-3.8,1.7-3.8,3.8s1.7,3.8,3.8,3.8s3.8-1.7,3.8-3.8l0,0C19.7,8.6,18,6.9,15.9,6.9z"/>
	</g>
	<g transform="translate(324.75,211.5517)">
		<circle class="st8" cx="15.9" cy="10.7" r="3.1"/>
	</g>
	<g transform="translate(324.75,211.5517)">
		<path class="st8" d="M15.9,8.3c1.4,0,2.5,1.1,2.5,2.5l0,0c0,1.4-1.1,2.5-2.5,2.5s-2.5-1.1-2.5-2.5S14.6,8.3,15.9,8.3z M15.9,6.9
			c-2.1,0-3.8,1.7-3.8,3.8s1.7,3.8,3.8,3.8s3.8-1.7,3.8-3.8l0,0C19.7,8.6,18,6.9,15.9,6.9z"/>
	</g>
	<g transform="translate(324.75,211.5517)">
		<circle class="st8" cx="15.9" cy="10.7" r="3.1"/>
	</g>
	<g transform="translate(324.75,211.5517)">
		<path class="st8" d="M15.9,8.3c1.4,0,2.5,1.1,2.5,2.5l0,0c0,1.4-1.1,2.5-2.5,2.5s-2.5-1.1-2.5-2.5S14.6,8.3,15.9,8.3z M15.9,6.9
			c-2.1,0-3.8,1.7-3.8,3.8s1.7,3.8,3.8,3.8s3.8-1.7,3.8-3.8l0,0C19.7,8.6,18,6.9,15.9,6.9z"/>
	</g>
	<g transform="translate(324.75,211.5517)">
		<circle class="st8" cx="15.9" cy="10.7" r="3.1"/>
	</g>
	<g transform="translate(324.75,211.5517)">
		<path class="st8" d="M15.9,8.3c1.4,0,2.5,1.1,2.5,2.5l0,0c0,1.4-1.1,2.5-2.5,2.5s-2.5-1.1-2.5-2.5S14.6,8.3,15.9,8.3z M15.9,6.9
			c-2.1,0-3.8,1.7-3.8,3.8s1.7,3.8,3.8,3.8s3.8-1.7,3.8-3.8l0,0C19.7,8.6,18,6.9,15.9,6.9z"/>
	</g>
	<g transform="translate(324.75,201.2069)">
		<circle class="st8" cx="15.9" cy="10.7" r="3.1"/>
	</g>
	<g transform="translate(324.75,201.2069)">
		<path class="st8" d="M15.9,8.3c1.4,0,2.5,1.1,2.5,2.5l0,0c0,1.4-1.1,2.5-2.5,2.5s-2.5-1.1-2.5-2.5S14.6,8.3,15.9,8.3z M15.9,6.9
			c-2.1,0-3.8,1.7-3.8,3.8s1.7,3.8,3.8,3.8s3.8-1.7,3.8-3.8l0,0C19.7,8.6,18,6.9,15.9,6.9z"/>
	</g>
	<g transform="translate(324.75,201.2069)">
		<circle class="st8" cx="15.9" cy="10.7" r="3.1"/>
	</g>
	<g transform="translate(324.75,201.2069)">
		<path class="st8" d="M15.9,8.3c1.4,0,2.5,1.1,2.5,2.5l0,0c0,1.4-1.1,2.5-2.5,2.5s-2.5-1.1-2.5-2.5S14.6,8.3,15.9,8.3z M15.9,6.9
			c-2.1,0-3.8,1.7-3.8,3.8s1.7,3.8,3.8,3.8s3.8-1.7,3.8-3.8l0,0C19.7,8.6,18,6.9,15.9,6.9z"/>
	</g>
	<g transform="translate(324.75,201.2069)">
		<circle class="st8" cx="15.9" cy="10.7" r="3.1"/>
	</g>
	<g transform="translate(324.75,201.2069)">
		<path class="st8" d="M15.9,8.3c1.4,0,2.5,1.1,2.5,2.5l0,0c0,1.4-1.1,2.5-2.5,2.5s-2.5-1.1-2.5-2.5S14.6,8.3,15.9,8.3z M15.9,6.9
			c-2.1,0-3.8,1.7-3.8,3.8s1.7,3.8,3.8,3.8s3.8-1.7,3.8-3.8l0,0C19.7,8.6,18,6.9,15.9,6.9z"/>
	</g>
	<g transform="translate(324.75,201.2069)">
		<circle class="st8" cx="15.9" cy="10.7" r="3.1"/>
	</g>
	<g transform="translate(324.75,201.2069)">
		<path class="st8" d="M15.9,8.3c1.4,0,2.5,1.1,2.5,2.5l0,0c0,1.4-1.1,2.5-2.5,2.5s-2.5-1.1-2.5-2.5S14.6,8.3,15.9,8.3z M15.9,6.9
			c-2.1,0-3.8,1.7-3.8,3.8s1.7,3.8,3.8,3.8s3.8-1.7,3.8-3.8l0,0C19.7,8.6,18,6.9,15.9,6.9z"/>
	</g>
	<g transform="translate(324.75,190.8621)">
		<circle class="st8" cx="15.9" cy="10.7" r="3.1"/>
	</g>
	<g transform="translate(324.75,190.8621)">
		<path class="st8" d="M15.9,8.3c1.4,0,2.5,1.1,2.5,2.5l0,0c0,1.4-1.1,2.5-2.5,2.5s-2.5-1.1-2.5-2.5S14.6,8.3,15.9,8.3z M15.9,6.9
			c-2.1,0-3.8,1.7-3.8,3.8s1.7,3.8,3.8,3.8s3.8-1.7,3.8-3.8l0,0C19.7,8.6,18,6.9,15.9,6.9z"/>
	</g>
	<g transform="translate(324.75,190.8621)">
		<circle class="st8" cx="15.9" cy="10.7" r="3.1"/>
	</g>
	<g transform="translate(324.75,190.8621)">
		<path class="st8" d="M15.9,8.3c1.4,0,2.5,1.1,2.5,2.5l0,0c0,1.4-1.1,2.5-2.5,2.5s-2.5-1.1-2.5-2.5S14.6,8.3,15.9,8.3z M15.9,6.9
			c-2.1,0-3.8,1.7-3.8,3.8s1.7,3.8,3.8,3.8s3.8-1.7,3.8-3.8l0,0C19.7,8.6,18,6.9,15.9,6.9z"/>
	</g>
	<g transform="translate(324.75,190.8621)">
		<circle class="st8" cx="15.9" cy="10.7" r="3.1"/>
	</g>
	<g transform="translate(324.75,190.8621)">
		<path class="st8" d="M15.9,8.3c1.4,0,2.5,1.1,2.5,2.5l0,0c0,1.4-1.1,2.5-2.5,2.5s-2.5-1.1-2.5-2.5S14.6,8.3,15.9,8.3z M15.9,6.9
			c-2.1,0-3.8,1.7-3.8,3.8s1.7,3.8,3.8,3.8s3.8-1.7,3.8-3.8l0,0C19.7,8.6,18,6.9,15.9,6.9z"/>
	</g>
	<g transform="translate(324.75,180.5172)">
		<circle class="st8" cx="15.9" cy="10.7" r="3.1"/>
	</g>
	<g transform="translate(324.75,180.5172)">
		<path class="st8" d="M15.9,8.3c1.4,0,2.5,1.1,2.5,2.5l0,0c0,1.4-1.1,2.5-2.5,2.5s-2.5-1.1-2.5-2.5S14.6,8.3,15.9,8.3z M15.9,6.9
			c-2.1,0-3.8,1.7-3.8,3.8s1.7,3.8,3.8,3.8s3.8-1.7,3.8-3.8l0,0C19.7,8.6,18,6.9,15.9,6.9z"/>
	</g>
	<g transform="translate(324.75,180.5172)">
		<circle class="st8" cx="15.9" cy="10.7" r="3.1"/>
	</g>
	<g transform="translate(324.75,180.5172)">
		<path class="st8" d="M15.9,8.3c1.4,0,2.5,1.1,2.5,2.5l0,0c0,1.4-1.1,2.5-2.5,2.5s-2.5-1.1-2.5-2.5S14.6,8.3,15.9,8.3z M15.9,6.9
			c-2.1,0-3.8,1.7-3.8,3.8s1.7,3.8,3.8,3.8s3.8-1.7,3.8-3.8l0,0C19.7,8.6,18,6.9,15.9,6.9z"/>
	</g>
	<g transform="translate(324.75,180.5172)">
		<circle class="st8" cx="15.9" cy="10.7" r="3.1"/>
	</g>
	<g transform="translate(324.75,180.5172)">
		<path class="st8" d="M15.9,8.3c1.4,0,2.5,1.1,2.5,2.5l0,0c0,1.4-1.1,2.5-2.5,2.5s-2.5-1.1-2.5-2.5S14.6,8.3,15.9,8.3z M15.9,6.9
			c-2.1,0-3.8,1.7-3.8,3.8s1.7,3.8,3.8,3.8s3.8-1.7,3.8-3.8l0,0C19.7,8.6,18,6.9,15.9,6.9z"/>
	</g>
	<g transform="translate(324.75,149.4828)">
		<circle class="st8" cx="15.9" cy="10.7" r="3.1"/>
	</g>
	<g transform="translate(324.75,149.4828)">
		<path class="st8" d="M15.9,8.3c1.4,0,2.5,1.1,2.5,2.5l0,0c0,1.4-1.1,2.5-2.5,2.5s-2.5-1.1-2.5-2.5S14.6,8.3,15.9,8.3z M15.9,6.9
			c-2.1,0-3.8,1.7-3.8,3.8s1.7,3.8,3.8,3.8s3.8-1.7,3.8-3.8l0,0C19.7,8.6,18,6.9,15.9,6.9z"/>
	</g>
	<g transform="translate(324.75,128.7931)">
		<circle class="st8" cx="15.9" cy="10.7" r="3.1"/>
	</g>
	<g transform="translate(324.75,128.7931)">
		<path class="st8" d="M15.9,8.3c1.4,0,2.5,1.1,2.5,2.5l0,0c0,1.4-1.1,2.5-2.5,2.5s-2.5-1.1-2.5-2.5S14.6,8.3,15.9,8.3z M15.9,6.9
			c-2.1,0-3.8,1.7-3.8,3.8s1.7,3.8,3.8,3.8s3.8-1.7,3.8-3.8l0,0C19.7,8.6,18,6.9,15.9,6.9z"/>
	</g>
	<g>
		<path class="st9" d="M152.5,243V305h75.2V243H152.5z"/>
	</g>
	<g>
		<path class="st10" d="M152.5,305V243h75.2V305H152.5L152.5,305"/>
	</g>
	<g>
		<path class="st11" d="M303,284.4v31h75.2v-31H303z"/>
	</g>
	<g>
		<path class="st12" d="M303,315.4v-31h75.2v31H303L303,315.4"/>
	</g>
</g>
<line class="st0" x1="114.9" y1="10.7" x2="415.9" y2="10.7"/>
</svg>
